<?xml version="1.0" encoding="UTF-8" standalone="no"?>
<!-- Created with Inkscape (http://www.inkscape.org/) -->

<svg
   xmlns:dc="http://purl.org/dc/elements/1.1/"
   xmlns:cc="http://creativecommons.org/ns#"
   xmlns:rdf="http://www.w3.org/1999/02/22-rdf-syntax-ns#"
   xmlns:svg="http://www.w3.org/2000/svg"
   xmlns="http://www.w3.org/2000/svg"
   xmlns:sodipodi="http://sodipodi.sourceforge.net/DTD/sodipodi-0.dtd"
   xmlns:inkscape="http://www.inkscape.org/namespaces/inkscape"
   id="svg2"
   version="1.1"
   inkscape:version="0.91 r13725"
   width="128"
   height="128"
   viewBox="0 0 128 128"
   sodipodi:docname="CRI-logo-128sq.svg">
  <metadata
     id="metadata8">
    <rdf:RDF>
      <cc:Work
         rdf:about="">
        <dc:format>image/svg+xml</dc:format>
        <dc:type
           rdf:resource="http://purl.org/dc/dcmitype/StillImage" />
        <dc:title></dc:title>
      </cc:Work>
    </rdf:RDF>
  </metadata>
  <defs
     id="defs6" />
  <sodipodi:namedview
     pagecolor="#ffffff"
     bordercolor="#666666"
     borderopacity="1"
     objecttolerance="10"
     gridtolerance="10"
     guidetolerance="10"
     inkscape:pageopacity="0"
     inkscape:pageshadow="2"
     inkscape:window-width="1855"
     inkscape:window-height="1056"
     id="namedview4"
     showgrid="false"
     inkscape:zoom="4.3389809"
     inkscape:cx="39.263277"
     inkscape:cy="70.080676"
     inkscape:window-x="65"
     inkscape:window-y="24"
     inkscape:window-maximized="1"
     inkscape:current-layer="svg2"
     fit-margin-top="0"
     fit-margin-left="0"
     fit-margin-right="0"
     fit-margin-bottom="0" />
  <g
     style="font-style:normal;font-variant:normal;font-weight:normal;font-stretch:normal;font-size:40px;line-height:125%;font-family:'Noto Sans Mono CJK JP';-inkscape-font-specification:'Noto Sans Mono CJK JP';letter-spacing:0px;word-spacing:0px;fill:#779b9b;fill-opacity:1;stroke:none;stroke-width:1px;stroke-linecap:butt;stroke-linejoin:miter;stroke-opacity:1"
     id="text4200" />
  <g
     transform="matrix(0,-1,1,0,0,0)"
     style="font-style:normal;font-variant:normal;font-weight:normal;font-stretch:normal;font-size:40px;line-height:125%;font-family:'Noto Sans Mono CJK JP';-inkscape-font-specification:'Noto Sans Mono CJK JP';letter-spacing:0px;word-spacing:0px;fill:#779b9b;fill-opacity:1;stroke:none;stroke-width:1px;stroke-linecap:butt;stroke-linejoin:miter;stroke-opacity:1"
     id="text4204" />
  <g
     id="g4318">
    <rect
       inkscape:export-ydpi="90"
       inkscape:export-xdpi="90"
       y="0"
       x="0"
       height="128"
       width="128"
       id="rect4138"
       style="opacity:1;fill:#ffffff;fill-opacity:1;stroke:none;stroke-width:5;stroke-miterlimit:4;stroke-dasharray:none;stroke-dashoffset:0;stroke-opacity:1" />
    <g
       id="text4208"
       style="font-style:normal;font-variant:normal;font-weight:normal;font-stretch:normal;font-size:40px;line-height:125%;font-family:'Noto Sans Mono CJK JP';-inkscape-font-specification:'Noto Sans Mono CJK JP';letter-spacing:0px;word-spacing:0px;fill:#779b9b;fill-opacity:1;stroke:none;stroke-width:1px;stroke-linecap:butt;stroke-linejoin:miter;stroke-opacity:1"
       inkscape:transform-center-y="-28.970185"
       inkscape:transform-center-x="-16.952105"
       transform="matrix(0.48833786,-0.87265465,0.87265465,0.48833786,0,0)">
      <path
         d="m -33.246094,39.898438 c -0.155288,-0.0065 -0.316898,0.0032 -0.484375,0.02734 -0.334222,0.04617 -0.68206,0.171083 -1.042969,0.373047 -0.309651,0.173282 -0.574329,0.375639 -0.794921,0.603516 a 0.12090601,0.12090601 0 0 0 -0.0039,0.002 c -0.213984,0.232013 -0.369061,0.489799 -0.466796,0.771484 -0.09829,0.283292 -0.131987,0.591147 -0.09766,0.916016 a 0.12090601,0.12090601 0 0 0 0.002,0.002 c 0.04307,0.330259 0.165752,0.672824 0.365235,1.029297 0.157496,0.281446 0.323586,0.519081 0.501953,0.712891 0.176556,0.193874 0.311982,0.322945 0.425781,0.396484 a 0.12090601,0.12090601 0 0 0 0.142578,-0.0078 l 0.539063,-0.43164 a 0.12090601,0.12090601 0 0 0 -0.0059,-0.191407 c -0.07731,-0.05528 -0.191745,-0.15971 -0.332031,-0.304687 -0.124729,-0.134795 -0.254643,-0.323408 -0.390625,-0.566406 -0.238375,-0.425974 -0.301683,-0.775171 -0.216797,-1.0625 0.07732,-0.26171 0.282365,-0.504683 0.589844,-0.732422 l 1.449219,2.589844 a 0.12090601,0.12090601 0 0 0 0.15039,0.05273 c 0.04857,-0.01976 0.0969,-0.04256 0.146485,-0.07031 l 0.123047,-0.06836 c 0.696237,-0.389614 1.14827,-0.833843 1.333984,-1.341797 l 0,-0.002 c 0.188584,-0.507353 0.119673,-1.05348 -0.191406,-1.609375 -0.135605,-0.242323 -0.314902,-0.455147 -0.535156,-0.634766 -0.222131,-0.181147 -0.476864,-0.311373 -0.759766,-0.386718 -0.142529,-0.03796 -0.291978,-0.05988 -0.447266,-0.06641 z m -0.18164,1.029296 0.0039,0 c 0.14682,-0.02072 0.286713,-0.01683 0.421875,0.0098 0.134715,0.02651 0.258609,0.07714 0.375,0.15625 a 0.12090601,0.12090601 0 0 0 0.002,0.002 c 0.119781,0.07866 0.219464,0.187135 0.302734,0.335938 0.148295,0.264999 0.166429,0.502727 0.0625,0.75 a 0.12090601,0.12090601 0 0 0 -0.002,0.0039 c -0.08552,0.21991 -0.257397,0.398165 -0.498047,0.550781 l -0.96289,-1.720703 c 0.09681,-0.0331 0.192746,-0.06943 0.294922,-0.08789 z m 3.09375,2.791016 a 0.12090601,0.12090601 0 0 0 -0.04883,0.01563 l -3.857422,2.158203 a 0.12090601,0.12090601 0 0 0 -0.04687,0.164063 l 0.398437,0.710937 a 0.12090601,0.12090601 0 0 0 0.164063,0.04687 l 3.265625,-1.828125 c 0.01002,0.012 0.0136,0.01697 0.02539,0.03125 0.04019,0.05013 0.08081,0.110436 0.125,0.177734 a 0.12090601,0.12090601 0 0 0 0.0039,0.0059 c 0.05192,0.06928 0.10382,0.141466 0.152344,0.216797 0.0496,0.07688 0.0955,0.150947 0.136719,0.224609 0.09996,0.178624 0.156108,0.336796 0.173828,0.472656 a 0.12090601,0.12090601 0 0 0 0,0.0039 c 0.02172,0.130716 0.0054,0.24825 -0.04883,0.363281 -0.05441,0.115461 -0.151244,0.234575 -0.296875,0.353516 a 0.12090601,0.12090601 0 0 0 -0.002,0.002 c -0.144846,0.125313 -0.337123,0.256853 -0.576172,0.390625 l -2.076172,1.162109 a 0.12090601,0.12090601 0 0 0 -0.04687,0.164063 l 0.396484,0.708984 a 0.12090601,0.12090601 0 0 0 0.164063,0.04687 l 2.230469,-1.248047 c 0.276385,-0.154666 0.515463,-0.322591 0.71875,-0.505859 0.207029,-0.186645 0.36093,-0.398427 0.455078,-0.632813 0.102612,-0.233357 0.135742,-0.48976 0.103516,-0.763672 l 0.002,0.002 c -0.02733,-0.282333 -0.136042,-0.584358 -0.31836,-0.910156 -0.199131,-0.355847 -0.399367,-0.659294 -0.601562,-0.910156 -0.197704,-0.24529 -0.362201,-0.439666 -0.498047,-0.583985 a 0.12090601,0.12090601 0 0 0 -0.09766,-0.03906 z m 3.644531,3.65625 a 0.12090601,0.12090601 0 0 0 -0.04492,0.01563 l -3.542969,1.982422 c -0.270331,0.151277 -0.499241,0.307727 -0.6875,0.46875 a 0.12090601,0.12090601 0 0 0 -0.0039,0.002 c -0.183501,0.166541 -0.318988,0.350717 -0.404297,0.552734 -0.086,0.203667 -0.113748,0.424776 -0.08594,0.65625 a 0.12090601,0.12090601 0 0 0 0,0.0059 c 0.03652,0.23444 0.133164,0.487037 0.289062,0.765625 0.132949,0.237578 0.282611,0.436629 0.449219,0.59375 0.151107,0.149968 0.26522,0.252486 0.353515,0.3125 a 0.12090601,0.12090601 0 0 0 0.150391,-0.0098 l 0.511719,-0.464844 a 0.12090601,0.12090601 0 0 0 -0.0059,-0.183593 c -0.04856,-0.03928 -0.135262,-0.111366 -0.259765,-0.214844 -0.09954,-0.08695 -0.210996,-0.233635 -0.326172,-0.439453 -0.06381,-0.114026 -0.103546,-0.21853 -0.121094,-0.310547 -0.01671,-0.08765 -0.0098,-0.167169 0.01953,-0.248047 2.3e-4,-6.33e-4 -2.32e-4,-0.0013 0,-0.002 0.03376,-0.08135 0.09868,-0.168427 0.197266,-0.259766 0.105638,-0.09587 0.254323,-0.200624 0.447266,-0.308594 l 1.726562,-0.966796 0.783203,1.398437 a 0.12090601,0.12090601 0 0 0 0.164063,0.04687 l 0.595703,-0.332031 a 0.12090601,0.12090601 0 0 0 0.04687,-0.164063 l -0.783203,-1.398437 1.123047,-0.630859 a 0.12090601,0.12090601 0 0 0 0.03516,-0.181641 l -0.519531,-0.640625 A 0.12090601,0.12090601 0 0 0 -26.689453,47.375 Z m 0.474609,3.832031 a 0.12090601,0.12090601 0 0 0 -0.04883,0.01563 l -3.802734,2.126953 a 0.12090601,0.12090601 0 0 0 -0.04687,0.164063 l 0.396484,0.710937 a 0.12090601,0.12090601 0 0 0 0.164063,0.04687 l 3.253906,-1.820312 c 0.03481,0.03914 0.06215,0.07073 0.126953,0.146484 a 0.12090601,0.12090601 0 0 0 0.002,0.0039 c 0.09869,0.108738 0.184522,0.22562 0.253906,0.34961 0.110818,0.19803 0.18186,0.365164 0.21875,0.496094 a 0.12090601,0.12090601 0 0 0 0.002,0.0039 c 0.04783,0.144244 0.07739,0.250227 0.08594,0.302734 a 0.12090601,0.12090601 0 0 0 0.15625,0.0957 l 0.6875,-0.224609 a 0.12090601,0.12090601 0 0 0 0.08203,-0.138672 c -0.009,-0.04715 -0.02772,-0.102157 -0.05273,-0.169922 l -0.002,-0.0078 c -0.01984,-0.07155 -0.04706,-0.145833 -0.07813,-0.22461 l -0.002,-0.0078 c -0.02775,-0.08485 -0.06154,-0.169755 -0.101563,-0.253906 l -0.0039,-0.0078 c -0.03282,-0.08198 -0.06708,-0.155593 -0.103516,-0.220703 -0.176893,-0.316105 -0.366331,-0.586884 -0.568359,-0.8125 l -0.002,-0.002 c -0.192369,-0.222961 -0.368451,-0.404201 -0.529297,-0.542969 a 0.12090601,0.12090601 0 0 0 -0.08789,-0.0293 z m 1.181641,3.367188 c -0.155288,-0.0065 -0.316899,0.0032 -0.484375,0.02734 -0.334222,0.04617 -0.682061,0.171083 -1.042969,0.373047 -0.309304,0.173087 -0.57408,0.373429 -0.794922,0.601563 a 0.12090601,0.12090601 0 0 0 -0.0039,0.002 c -0.213965,0.231993 -0.370901,0.491426 -0.46875,0.773437 -0.09841,0.28362 -0.129982,0.589746 -0.0957,0.914063 a 0.12090601,0.12090601 0 0 0 0.002,0.002 c 0.04307,0.330259 0.165752,0.672825 0.365234,1.029297 0.157379,0.281232 0.323302,0.520722 0.501953,0.714844 0.176253,0.193539 0.30939,0.322532 0.423829,0.396484 a 0.12090601,0.12090601 0 0 0 0.142578,-0.0078 l 0.541015,-0.433594 a 0.12090601,0.12090601 0 0 0 -0.0059,-0.191406 c -0.07826,-0.05596 -0.192116,-0.158142 -0.332031,-0.302735 -0.125136,-0.135218 -0.256831,-0.323826 -0.392578,-0.566406 -0.238375,-0.425974 -0.301683,-0.775172 -0.216797,-1.0625 0.07732,-0.26171 0.282365,-0.504683 0.589843,-0.732422 l 1.449219,2.589844 a 0.12090601,0.12090601 0 0 0 0.150391,0.05273 c 0.05027,-0.02046 0.09986,-0.04508 0.148437,-0.07227 l 0.121094,-0.06836 c 0.696003,-0.389483 1.150084,-0.831514 1.335938,-1.339843 l 0,-0.002 c 0.188621,-0.507458 0.119732,-1.055324 -0.191407,-1.611328 -0.135605,-0.242324 -0.314901,-0.455148 -0.535156,-0.634765 -0.22248,-0.181434 -0.477394,-0.309561 -0.759766,-0.384766 -0.142528,-0.03796 -0.291977,-0.05988 -0.447265,-0.06641 z m -0.183594,1.027343 0.0039,0 c 0.146822,-0.02072 0.286713,-0.01683 0.421875,0.0098 0.133725,0.02632 0.257921,0.07863 0.375,0.158203 a 0.12090601,0.12090601 0 0 0 0.002,0.002 c 0.12022,0.07895 0.221777,0.187778 0.304687,0.335938 0.148093,0.264638 0.164661,0.502286 0.06055,0.75 a 0.12090601,0.12090601 0 0 0 -0.002,0.0039 c -0.08544,0.2198 -0.257219,0.396519 -0.498047,0.548828 l -0.962891,-1.720703 c 0.09667,-0.03332 0.192458,-0.06938 0.294922,-0.08789 z m 14.449219,29.078126 a 0.12090601,0.12090601 0 0 0 -0.01367,0.002 c -0.05661,0.0086 -0.127113,0.02402 -0.216797,0.04687 -0.08715,0.02067 -0.181969,0.05123 -0.287109,0.08984 -5.46e-4,1.71e-4 -0.0014,-1.7e-4 -0.002,0 -0.0015,5.55e-4 -0.0024,0.0014 -0.0039,0.002 -0.11102,0.03491 -0.22768,0.07735 -0.347656,0.13086 -0.12478,0.04931 -0.242641,0.107647 -0.357422,0.171875 -0.46422,0.259778 -0.783865,0.581164 -0.939453,0.966797 -0.157847,0.379531 -0.128782,0.777576 0.08203,1.154297 0.106527,0.190363 0.23225,0.338444 0.38086,0.439453 0.141827,0.0964 0.298097,0.164449 0.464844,0.197265 0.162038,0.03189 0.334621,0.04056 0.517578,0.0293 a 0.12090601,0.12090601 0 0 0 0.0059,0 c 0.177725,-0.01878 0.359035,-0.04191 0.546875,-0.06641 0.381826,-0.04872 0.667619,-0.05942 0.841797,-0.03711 0.161878,0.02073 0.2642499,0.09077 0.345703,0.236328 0.077448,0.1384 0.075824,0.238562 -0.00391,0.363281 a 0.12090601,0.12090601 0 0 0 -0.00195,0 c -0.075706,0.122512 -0.2524266,0.276473 -0.5332026,0.433594 -0.287944,0.161136 -0.530187,0.256017 -0.722657,0.291015 -0.211653,0.03849 -0.366437,0.06536 -0.46289,0.08008 a 0.12090601,0.12090601 0 0 0 -0.09766,0.154296 l 0.210938,0.683594 a 0.12090601,0.12090601 0 0 0 0.128906,0.08594 c 0.101204,-0.0107 0.260015,-0.04396 0.492188,-0.09961 0.252319,-0.05459 0.550166,-0.183547 0.9062496,-0.382812 0.517096,-0.289367 0.8729674,-0.613323 1.0527344,-0.984375 l -0.00195,0 c 0.1856358,-0.374778 0.1652054,-0.780881 -0.054687,-1.173828 -0.110831,-0.198054 -0.2344977,-0.353691 -0.3789063,-0.462891 l -0.00195,0 c -0.1427624,-0.110566 -0.304663,-0.185073 -0.4785156,-0.220703 -0.1666176,-0.03772 -0.3467694,-0.04836 -0.5410154,-0.03125 l -0.002,0 c -0.19142,0.01164 -0.402412,0.03585 -0.632813,0.07031 a 0.12090601,0.12090601 0 0 0 -0.002,0 c -0.168073,0.02836 -0.313524,0.04578 -0.4375,0.05664 -0.1197,0.01048 -0.223266,0.0096 -0.3125,0 -0.08053,-0.01637 -0.149297,-0.04132 -0.205078,-0.07617 -0.05068,-0.0373 -0.09577,-0.08893 -0.136719,-0.162109 -0.07686,-0.137341 -0.07314,-0.236633 0.01172,-0.365235 a 0.12090601,0.12090601 0 0 0 0.002,-0.002 c 0.08981,-0.144383 0.221934,-0.26795 0.40625,-0.371093 0.221843,-0.124146 0.421272,-0.206099 0.595703,-0.248047 a 0.12090601,0.12090601 0 0 0 0.0039,0 c 0.181324,-0.04926 0.319403,-0.07458 0.398438,-0.07617 a 0.12090601,0.12090601 0 0 0 0.113281,-0.15625 l -0.212891,-0.683594 a 0.12090601,0.12090601 0 0 0 -0.11914,-0.08594 z m -4.5,2.671874 c -0.394706,-0.04527 -0.807258,0.05356 -1.22461,0.28711 -0.24258,0.135747 -0.45348,0.315252 -0.632812,0.535156 -0.180915,0.221844 -0.311335,0.474768 -0.386719,0.757813 -0.07592,0.285058 -0.08729,0.596688 -0.03906,0.93164 0.04617,0.334222 0.171082,0.682061 0.373047,1.042969 0.172977,0.309109 0.37316,0.575774 0.601562,0.796875 a 0.12090601,0.12090601 0 0 0 0.002,0.0039 c 0.232275,0.214225 0.491927,0.369122 0.773438,0.466797 0.283619,0.0984 0.589747,0.129974 0.914062,0.0957 a 0.12090601,0.12090601 0 0 0 0.002,-0.002 c 0.329702,-0.043 0.674305,-0.163536 1.03125,-0.363281 0.281826,-0.157711 0.51942,-0.325852 0.712891,-0.503906 0.19354,-0.176253 0.322532,-0.309388 0.396484,-0.423829 a 0.12090601,0.12090601 0 0 0 -0.0078,-0.142578 l -0.433594,-0.541015 a 0.12090601,0.12090601 0 0 0 -0.191406,0.0059 c -0.05596,0.07826 -0.158141,0.192117 -0.302735,0.332031 -0.135218,0.125136 -0.323827,0.256832 -0.566406,0.392579 -0.425975,0.238376 -0.775171,0.301683 -1.0625,0.216796 -0.26171,-0.07732 -0.504682,-0.282365 -0.732422,-0.589843 l 2.589844,-1.449219 a 0.12090601,0.12090601 0 0 0 0.05273,-0.150391 c -0.01929,-0.0474 -0.04185,-0.09758 -0.07031,-0.148437 l -0.06836,-0.121094 c -0.38957,-0.696158 -0.833562,-1.150122 -1.341797,-1.335938 l -0.002,0 c -0.12648,-0.04701 -0.255775,-0.07873 -0.386719,-0.09375 z m -0.394531,0.980469 c 0.123363,-0.01006 0.243551,0.01054 0.367187,0.0625 a 0.12090601,0.12090601 0 0 0 0.0039,0.002 c 0.219758,0.08546 0.396477,0.257229 0.548828,0.498047 l -1.71875,0.960938 c -0.03302,-0.09611 -0.06949,-0.191126 -0.08789,-0.292969 l 0,-0.0039 c -0.02072,-0.146823 -0.01684,-0.286713 0.0098,-0.421875 0.02651,-0.134714 0.07714,-0.258609 0.15625,-0.375 a 0.12090601,0.12090601 0 0 0 0.002,-0.002 c 0.07866,-0.119782 0.187135,-0.219465 0.335937,-0.302735 0.1325,-0.07415 0.259449,-0.114944 0.382813,-0.125 z m -7.65625,0.705078 a 0.12090601,0.12090601 0 0 0 -0.07227,0.02734 l -0.642578,0.519531 a 0.12090601,0.12090601 0 0 0 -0.0293,0.152344 l 3.248047,5.802734 a 0.12090601,0.12090601 0 0 0 0.164062,0.04688 l 0.710938,-0.396485 a 0.12090601,0.12090601 0 0 0 0.04687,-0.164062 l -1.804688,-3.222657 c 0.01382,-0.0144 0.01869,-0.02097 0.03711,-0.03906 0.04787,-0.0449 0.105286,-0.09082 0.167968,-0.138672 a 0.12090601,0.12090601 0 0 0 0.0039,-0.0039 c 0.06632,-0.05673 0.13637,-0.112564 0.208984,-0.166016 0.07117,-0.05239 0.142164,-0.098 0.214844,-0.138672 0.179178,-0.100267 0.33778,-0.158189 0.472656,-0.175781 a 0.12090601,0.12090601 0 0 0 0.0039,0 c 0.130717,-0.02172 0.248251,-0.0054 0.363282,0.04883 0.11546,0.05441 0.234576,0.151245 0.353515,0.296875 a 0.12090601,0.12090601 0 0 0 0.002,0.002 c 0.12493,0.144401 0.25466,0.336694 0.388672,0.576172 l 1.16211,2.078125 a 0.12090601,0.12090601 0 0 0 0.164062,0.04687 l 0.710938,-0.398437 a 0.12090601,0.12090601 0 0 0 0.04687,-0.164063 l -1.248047,-2.228515 c -0.154545,-0.27617 -0.322324,-0.517121 -0.50586,-0.720704 -0.186913,-0.207327 -0.39901,-0.359212 -0.632812,-0.453125 -0.232797,-0.102384 -0.489169,-0.137765 -0.763672,-0.105468 l 0.002,-0.002 c -0.282275,0.02732 -0.586125,0.135938 -0.912109,0.318359 -0.155442,0.08698 -0.302514,0.19203 -0.44336,0.3125 -0.09311,0.07559 -0.170471,0.160262 -0.25,0.244141 l -1.058593,-1.892579 a 0.12090601,0.12090601 0 0 0 -0.109375,-0.0625 z m -1.00586,3.246094 a 0.12090601,0.12090601 0 0 0 -0.0059,0.002 c -0.208561,0.02606 -0.413925,0.07449 -0.617188,0.146485 -0.201747,0.07146 -0.394045,0.158706 -0.578125,0.261718 -0.303177,0.169658 -0.553813,0.383264 -0.74414,0.638672 l 0.002,0 c -0.187459,0.246339 -0.313918,0.519457 -0.375,0.816407 l 0.002,-0.002 c -0.06394,0.290784 -0.06863,0.596945 -0.01563,0.916016 a 0.12090601,0.12090601 0 0 0 0,0.002 c 0.05855,0.317371 0.17701,0.633806 0.353516,0.949219 0.176131,0.314744 0.381052,0.582219 0.615234,0.800781 a 0.12090601,0.12090601 0 0 0 0,0.002 c 0.232276,0.214227 0.491927,0.369122 0.773438,0.466797 a 0.12090601,0.12090601 0 0 0 0.002,0.002 c 0.287008,0.09469 0.588288,0.12559 0.90039,0.0918 a 0.12090601,0.12090601 0 0 0 0,-0.002 c 0.319619,-0.03705 0.646386,-0.148125 0.978516,-0.333984 0.106075,-0.05936 0.208712,-0.129129 0.308594,-0.205078 0.107064,-0.07338 0.206146,-0.147558 0.294921,-0.22461 l 0.0059,-0.0039 c 0.08889,-0.07029 0.165989,-0.140554 0.232422,-0.205078 a 0.12090601,0.12090601 0 0 0 0.0059,-0.0039 c 0.06563,-0.07204 0.114107,-0.134725 0.148438,-0.197266 a 0.12090601,0.12090601 0 0 0 -0.01172,-0.134766 l -0.431641,-0.541015 a 0.12090601,0.12090601 0 0 0 -0.191406,0.0059 c -0.05592,0.07821 -0.150543,0.179449 -0.279297,0.296875 -0.124509,0.113554 -0.277202,0.222493 -0.458984,0.324219 -0.222783,0.12467 -0.424778,0.19575 -0.603516,0.21875 -0.18574,0.01822 -0.357133,-0.0037 -0.517578,-0.06445 -0.154754,-0.06327 -0.29969,-0.162341 -0.439453,-0.300782 l -0.002,-0.002 c -0.137053,-0.143999 -0.264118,-0.316357 -0.378906,-0.521484 -0.259104,-0.463015 -0.345313,-0.858451 -0.283204,-1.1875 0.06739,-0.332304 0.27038,-0.593359 0.644532,-0.802734 0.151328,-0.08469 0.300639,-0.149953 0.445312,-0.19336 0.151721,-0.04678 0.291298,-0.07187 0.416016,-0.08008 a 0.12090601,0.12090601 0 0 0 0.109375,-0.150391 L -24.197266,92.375 a 0.12090601,0.12090601 0 0 0 -0.126953,-0.0918 z m -4.058593,2.193359 c -0.05654,-3.26e-4 -0.360981,0.116577 -0.1875,0.05469 -0.07566,0.02055 -0.157129,0.04829 -0.242188,0.08203 -0.08754,0.02864 -0.174922,0.06375 -0.261719,0.105469 -0.08198,0.03282 -0.155593,0.06708 -0.220703,0.103516 -0.316972,0.177379 -0.588468,0.367661 -0.814453,0.570312 -0.222961,0.192369 -0.404201,0.368451 -0.542969,0.529297 a 0.12090601,0.12090601 0 0 0 -0.01367,0.136719 l 2.126954,3.802734 a 0.12090601,0.12090601 0 0 0 0.164062,0.04687 l 0.710938,-0.396484 a 0.12090601,0.12090601 0 0 0 0.04687,-0.164063 L -29.4375,96.09375 c 0.03914,-0.03481 0.07072,-0.06215 0.146484,-0.126953 a 0.12090601,0.12090601 0 0 0 0.0039,-0.002 c 0.108736,-0.09869 0.225621,-0.184523 0.349609,-0.253906 0.198031,-0.110819 0.365163,-0.18186 0.496094,-0.21875 a 0.12090601,0.12090601 0 0 0 0.0039,-0.002 c 0.144244,-0.04783 0.250227,-0.07739 0.302734,-0.08594 a 0.12090601,0.12090601 0 0 0 0.0957,-0.15625 l -0.222657,-0.6875 a 0.12090601,0.12090601 0 0 0 -0.121093,-0.08398 z m -4.449219,2.705079 c -0.394622,-0.04583 -0.807111,0.05152 -1.22461,0.285156 -0.242323,0.135604 -0.455147,0.314901 -0.634765,0.535156 -0.181148,0.22213 -0.311372,0.476863 -0.386719,0.759766 -0.07592,0.285057 -0.08729,0.596688 -0.03906,0.93164 0.04624,0.334711 0.173202,0.682361 0.375,1.042971 0.173088,0.3093 0.373431,0.57407 0.601563,0.79492 a 0.12090601,0.12090601 0 0 0 0.002,0.002 c 0.231731,0.21373 0.489295,0.37281 0.771484,0.47071 0.283781,0.0984 0.591647,0.12996 0.916016,0.0957 a 0.12090601,0.12090601 0 0 0 0.002,-0.002 c 0.330257,-0.0431 0.672825,-0.16575 1.029297,-0.36524 0.281448,-0.15749 0.519082,-0.32358 0.712891,-0.50195 0.193543,-0.17625 0.322534,-0.30939 0.396484,-0.42383 a 0.12090601,0.12090601 0 0 0 -0.0078,-0.14258 L -30.75,100.12305 a 0.12090601,0.12090601 0 0 0 -0.191406,0.006 c -0.05596,0.0782 -0.158138,0.1921 -0.302735,0.33203 -0.134846,0.12477 -0.325544,0.2567 -0.568359,0.39258 -0.425973,0.23838 -0.77517,0.30167 -1.0625,0.21679 -0.261711,-0.0773 -0.504682,-0.28237 -0.732422,-0.58984 l 2.589844,-1.44922 a 0.12090601,0.12090601 0 0 0 0.05273,-0.150391 c -0.01931,-0.04765 -0.0419,-0.09767 -0.07031,-0.148437 l -0.06836,-0.121094 c -0.389483,-0.696001 -0.831513,-1.150083 -1.339843,-1.335937 l -0.002,0 c -0.126413,-0.04699 -0.255803,-0.07855 -0.386719,-0.09375 z m -0.396485,0.978515 c 0.122817,-0.0096 0.243239,0.01236 0.367188,0.06445 a 0.12090601,0.12090601 0 0 0 0.0039,0.002 c 0.219911,0.08552 0.398164,0.257397 0.550781,0.498047 l -1.720703,0.962891 c -0.03332,-0.09667 -0.06937,-0.192456 -0.08789,-0.294922 l 0,-0.0039 c -0.02072,-0.14682 -0.01684,-0.286713 0.0098,-0.421875 0.02651,-0.134714 0.07714,-0.25861 0.15625,-0.375 a 0.12090601,0.12090601 0 0 0 0.002,-0.002 c 0.07851,-0.119553 0.189372,-0.221576 0.337891,-0.304688 0.13242,-0.0741 0.258043,-0.115388 0.380859,-0.125 z m -7.65625,0.707032 a 0.12090601,0.12090601 0 0 0 -0.07227,0.02734 l -0.640625,0.519531 a 0.12090601,0.12090601 0 0 0 -0.0293,0.152344 l 3.246094,5.802734 a 0.12090601,0.12090601 0 0 0 0.164062,0.0469 l 0.710938,-0.39649 a 0.12090601,0.12090601 0 0 0 0.04687,-0.16406 l -1.802735,-3.22266 c 0.01306,-0.0139 0.01748,-0.0217 0.03516,-0.0391 0.04789,-0.0449 0.105295,-0.0908 0.167968,-0.13867 a 0.12090601,0.12090601 0 0 0 0.0039,-0.004 c 0.06631,-0.0567 0.136392,-0.11261 0.208985,-0.16601 0.07116,-0.0524 0.142156,-0.098 0.214844,-0.13868 0.179181,-0.10025 0.337764,-0.15816 0.472656,-0.17578 a 0.12090601,0.12090601 0 0 0 0.0039,0 c 0.130678,-0.0218 0.248244,-0.005 0.363281,0.0488 0.11546,0.0544 0.234576,0.15125 0.353516,0.29688 a 0.12090601,0.12090601 0 0 0 0.002,0.002 c 0.125315,0.14485 0.256852,0.33712 0.390625,0.57617 l 1.16211,2.07813 a 0.12090601,0.12090601 0 0 0 0.164062,0.0469 l 0.708984,-0.39844 a 0.12090601,0.12090601 0 0 0 0.04687,-0.16406 l -1.248047,-2.22851 c -0.154543,-0.27617 -0.322318,-0.51713 -0.505859,-0.72071 -0.186912,-0.20733 -0.399007,-0.35922 -0.632812,-0.45312 -0.232799,-0.102401 -0.489164,-0.137786 -0.763672,-0.105471 l 0.002,-0.002 c -0.282332,0.02733 -0.584358,0.136044 -0.910156,0.318354 -0.155039,0.0868 -0.30403,0.19166 -0.445313,0.3125 -0.09311,0.0756 -0.170471,0.16027 -0.25,0.24415 l -1.058594,-1.892582 a 0.12090601,0.12090601 0 0 0 -0.109375,-0.0625 z m -1.003906,3.246092 a 0.12090601,0.12090601 0 0 0 -0.0059,0.002 c -0.208471,0.026 -0.415641,0.0744 -0.619141,0.14649 -0.201745,0.0715 -0.394042,0.1587 -0.578125,0.26172 -0.303018,0.16956 -0.551925,0.3814 -0.742187,0.63672 l 0.002,0 c -0.187398,0.24626 -0.315785,0.52099 -0.376953,0.81836 l 0.002,-0.002 c -0.06395,0.29079 -0.06864,0.59695 -0.01563,0.91602 a 0.12090601,0.12090601 0 0 0 0,0.002 c 0.05855,0.31737 0.17701,0.63381 0.353515,0.94922 0.176131,0.31475 0.38105,0.58222 0.615235,0.80078 0.232275,0.21423 0.491926,0.37108 0.773437,0.46875 a 0.12090601,0.12090601 0 0 0 0.002,0.002 c 0.287018,0.0947 0.588299,0.12558 0.900391,0.0918 a 0.12090601,0.12090601 0 0 0 0,-0.002 c 0.320133,-0.0371 0.646711,-0.15026 0.978516,-0.33594 0.104506,-0.0585 0.209247,-0.12623 0.310547,-0.20312 0.107615,-0.0738 0.204914,-0.14812 0.292968,-0.22461 l 0.0059,-0.004 c 0.08888,-0.0703 0.165999,-0.14059 0.232422,-0.20508 a 0.12090601,0.12090601 0 0 0 0.0059,-0.004 c 0.06479,-0.0711 0.114849,-0.13249 0.150391,-0.19727 a 0.12090601,0.12090601 0 0 0 -0.01172,-0.13477 l -0.433594,-0.54101 a 0.12090601,0.12090601 0 0 0 -0.191406,0.006 c -0.05593,0.0782 -0.150541,0.17944 -0.279297,0.29687 -0.124945,0.11395 -0.275559,0.22267 -0.457031,0.32422 -0.222108,0.12427 -0.425846,0.1937 -0.605469,0.2168 -0.186562,0.0183 -0.355625,-0.002 -0.515625,-0.0625 -0.155069,-0.0634 -0.301983,-0.16269 -0.441406,-0.30078 l -0.002,-0.002 c -0.13705,-0.14398 -0.264116,-0.31635 -0.378907,-0.52148 -0.259102,-0.46301 -0.345312,-0.85846 -0.283203,-1.1875 0.06731,-0.33191 0.272187,-0.59328 0.646484,-0.80273 0.151338,-0.0847 0.300623,-0.14992 0.445313,-0.19336 0.151992,-0.0469 0.2894,-0.0718 0.414063,-0.0801 a 0.12090601,0.12090601 0 0 0 0.109374,-0.15039 l -0.175781,-0.69336 a 0.12090601,0.12090601 0 0 0 -0.126953,-0.0918 z m -4.945312,2.9043 c -0.394622,-0.0458 -0.807112,0.0515 -1.22461,0.28515 -0.24232,0.13562 -0.455148,0.31492 -0.634765,0.53516 -0.181146,0.22214 -0.311373,0.47687 -0.386719,0.75977 -0.07592,0.28505 -0.08729,0.59668 -0.03906,0.93164 0.04624,0.3347 0.173202,0.68236 0.375,1.04297 0.173087,0.3093 0.373427,0.57408 0.601563,0.79492 a 0.12090601,0.12090601 0 0 0 0.002,0.004 c 0.23173,0.21372 0.489298,0.37085 0.771484,0.46875 0.283781,0.0984 0.591645,0.12997 0.916016,0.0957 a 0.12090601,0.12090601 0 0 0 0.002,-0.002 c 0.330259,-0.0431 0.672824,-0.16575 1.029297,-0.36523 0.281445,-0.1575 0.51908,-0.32358 0.712891,-0.50195 0.193539,-0.17626 0.322531,-0.30939 0.396484,-0.42383 a 0.12090601,0.12090601 0 0 0 -0.0078,-0.14258 l -0.431641,-0.54102 a 0.12090601,0.12090601 0 0 0 -0.191406,0.006 c -0.05596,0.0783 -0.158143,0.19213 -0.302735,0.33204 -0.134844,0.12477 -0.325544,0.2567 -0.568359,0.39257 -0.425973,0.23839 -0.775171,0.30169 -1.0625,0.2168 -0.261708,-0.0773 -0.504683,-0.28236 -0.732422,-0.58984 l 2.589844,-1.44922 a 0.12090601,0.12090601 0 0 0 0.05273,-0.15039 c -0.01932,-0.0477 -0.04189,-0.0977 -0.07031,-0.14844 l -0.06836,-0.12305 c -0.389528,-0.69609 -0.831791,-1.14824 -1.339843,-1.33398 l -0.002,0 c -0.126412,-0.047 -0.255802,-0.0785 -0.386718,-0.0937 z m -0.396485,0.97851 c 0.122819,-0.01 0.24324,0.0124 0.367188,0.0645 a 0.12090601,0.12090601 0 0 0 0.0039,0.002 c 0.220238,0.0856 0.398377,0.25613 0.550781,0.49609 l -1.720703,0.96289 c -0.0331,-0.0968 -0.06943,-0.19274 -0.08789,-0.29492 l 0,-0.004 c -0.02074,-0.14691 -0.01687,-0.28458 0.0098,-0.41993 0.02651,-0.13471 0.07714,-0.25861 0.15625,-0.375 a 0.12090601,0.12090601 0 0 0 0.002,-0.002 c 0.07851,-0.11955 0.189373,-0.22157 0.337891,-0.30469 0.132422,-0.0741 0.258041,-0.11538 0.380859,-0.125 z m 27.53711,8.68555 a 0.12090601,0.12090601 0 0 0 -0.01563,0.002 l -0.814454,0.13868 a 0.12090601,0.12090601 0 0 0 -0.101562,0.11914 l 0,2.11718 c -0.0906,-0.043 -0.166497,-0.0855 -0.292969,-0.1289 -0.213977,-0.0755 -0.459031,-0.11328 -0.732422,-0.11328 -0.341249,0 -0.651708,0.0629 -0.925781,0.1875 -0.26583,0.12364 -0.495307,0.29593 -0.68164,0.51953 -0.186049,0.22325 -0.326424,0.49053 -0.423829,0.79492 a 0.12090601,0.12090601 0 0 0 0,0.002 c -0.09132,0.3044 -0.136718,0.63611 -0.136718,0.9961 0,0.37916 0.05586,0.72694 0.166015,1.03906 a 0.12090601,0.12090601 0 0 0 0,0.002 c 0.115925,0.30507 0.279519,0.56825 0.490235,0.78516 0.210682,0.21688 0.465304,0.3854 0.759765,0.50195 0.29593,0.11714 0.625572,0.17383 0.988282,0.17383 0.38462,0 0.728419,-0.0259 1.029296,-0.0801 0.294371,-0.053 0.53653,-0.1062 0.728516,-0.16016 a 0.12090601,0.12090601 0 0 0 0.08789,-0.11718 l 0,-6.65821 a 0.12090601,0.12090601 0 0 0 -0.125,-0.12109 z m 20.9726559,0 a 0.12090601,0.12090601 0 0 0 -0.015625,0.002 l -0.81445315,0.13868 a 0.12090601,0.12090601 0 0 0 -0.1015625,0.11914 l 0,5.46093 c 0,0.45118 0.11104453,0.80523 0.3515625,1.03907 0.24372536,0.23696 0.63265805,0.34733 1.15039065,0.35937 a 0.12090601,0.12090601 0 0 0 0.1210937,-0.10156 l 0.1132813,-0.68164 a 0.12090601,0.12090601 0 0 0 -0.1035156,-0.13867 c -0.1217511,-0.0166 -0.2220078,-0.0373 -0.3027344,-0.0586 -0.073488,-0.0248 -0.1240223,-0.0557 -0.1601563,-0.0918 -0.035387,-0.0354 -0.06519,-0.0858 -0.083984,-0.15625 -0.018999,-0.0713 -0.029297,-0.17254 -0.029297,-0.30079 l 0,-5.46875 a 0.12090601,0.12090601 0 0 0 -0.125,-0.12109 z m -18.9589849,0.34961 c -0.172495,0 -0.333562,0.0638 -0.458984,0.18164 -0.124816,0.11747 -0.1875,0.28501 -0.1875,0.47266 0,0.18764 0.06065,0.35752 0.183594,0.48047 a 0.12090601,0.12090601 0 0 0 0.0059,0.004 c 0.125772,0.1118 0.285063,0.17188 0.457031,0.17188 0.17197,0 0.328803,-0.0605 0.449219,-0.17383 a 0.12090601,0.12090601 0 0 0 0.002,0 c 0.129121,-0.12195 0.195313,-0.29284 0.195313,-0.48242 0,-0.18959 -0.06832,-0.35826 -0.199219,-0.47461 -0.119511,-0.11684 -0.276658,-0.17969 -0.447266,-0.17969 z m 10.7851568,0 c -0.1724961,0 -0.3321573,0.0643 -0.4570313,0.18164 -0.1242404,0.11693 -0.1894531,0.28404 -0.1894531,0.47266 0,0.1886 0.063163,0.35808 0.1855468,0.48047 a 0.12090601,0.12090601 0 0 0 0.00586,0.004 c 0.1252156,0.1113 0.2831096,0.17188 0.4550782,0.17188 0.1719684,0 0.3288026,-0.0605 0.4492187,-0.17383 a 0.12090601,0.12090601 0 0 0 0.00195,0 c 0.1291203,-0.12195 0.1953125,-0.29284 0.1953125,-0.48242 0,-0.18959 -0.06832,-0.35826 -0.1992187,-0.47461 -0.119511,-0.11684 -0.276659,-0.17969 -0.4472656,-0.17969 z m 10.375,0 c -0.1724961,0 -0.3321573,0.0643 -0.4570313,0.18164 -0.1248173,0.11747 -0.1875,0.28501 -0.1875,0.47266 0,0.18764 0.060648,0.35752 0.1835937,0.48047 a 0.12090601,0.12090601 0 0 0 0.00586,0.004 c 0.1252156,0.1113 0.2831096,0.17188 0.4550782,0.17188 0.1719684,0 0.3301788,-0.06 0.4511718,-0.17383 a 0.12090601,0.12090601 0 0 0 0.00195,0 c 0.1296643,-0.12247 0.1933593,-0.2938 0.1933593,-0.48242 0,-0.18863 -0.06581,-0.35777 -0.1972656,-0.47461 -0.1200912,-0.11739 -0.278596,-0.17969 -0.4492187,-0.17969 z m 12.4101562,0 c -0.172496,0 -0.333562,0.0638 -0.458984,0.18164 -0.124818,0.11747 -0.1875,0.28501 -0.1875,0.47266 0,0.18764 0.06065,0.35752 0.183593,0.48047 a 0.12090601,0.12090601 0 0 0 0.0059,0.004 c 0.125772,0.1118 0.285063,0.17188 0.457031,0.17188 0.171968,0 0.328803,-0.0605 0.449219,-0.17383 a 0.12090601,0.12090601 0 0 0 0.002,0 c 0.129121,-0.12195 0.195312,-0.29284 0.195312,-0.48242 0,-0.18959 -0.06832,-0.35826 -0.199218,-0.47461 -0.119511,-0.11684 -0.27666,-0.17969 -0.447266,-0.17969 z m -50.882813,0.48047 a 0.12090601,0.12090601 0 0 0 -0.01758,0.002 l -0.814453,0.14063 a 0.12090601,0.12090601 0 0 0 -0.09961,0.11914 l 0,4.06054 c 0,0.30963 0.02365,0.58504 0.07227,0.82813 a 0.12090601,0.12090601 0 0 0 0.002,0.004 c 0.05569,0.24131 0.148274,0.45152 0.283203,0.625 0.136127,0.17502 0.316302,0.30602 0.53125,0.39453 a 0.12090601,0.12090601 0 0 0 0.0039,0.002 c 0.222297,0.0826 0.493062,0.12305 0.8125,0.12305 0.272792,0 0.518612,-0.0351 0.736328,-0.10352 0.204067,-0.0584 0.350448,-0.1078 0.447266,-0.15625 a 0.12090601,0.12090601 0 0 0 0.0625,-0.13476 l -0.158203,-0.67383 a 0.12090601,0.12090601 0 0 0 -0.16211,-0.084 c -0.0579,0.0232 -0.161352,0.063 -0.3125,0.1211 -0.125296,0.0448 -0.307244,0.0703 -0.542969,0.0703 -0.129792,0 -0.238198,-0.0169 -0.328124,-0.0469 -0.08691,-0.029 -0.155629,-0.0722 -0.210938,-0.13671 -0.05476,-0.0691 -0.09896,-0.16591 -0.130859,-0.29883 -0.03201,-0.13871 -0.04883,-0.32175 -0.04883,-0.54297 l 0,-1.97852 1.601563,0 a 0.12090601,0.12090601 0 0 0 0.121094,-0.12109 l 0,-0.68164 a 0.12090601,0.12090601 0 0 0 -0.121094,-0.12109 l -1.601563,0 0,-1.28907 a 0.12090601,0.12090601 0 0 0 -0.125,-0.12109 z m 4.697266,1.29492 c -0.278229,0 -0.550686,0.0539 -0.814453,0.1582 -0.266278,0.10528 -0.502986,0.26438 -0.707031,0.47461 -0.205501,0.21173 -0.368794,0.47723 -0.490235,0.79297 -0.122949,0.31427 -0.183593,0.68015 -0.183593,1.09375 0,0.35433 0.04544,0.68403 0.136718,0.98828 a 0.12090601,0.12090601 0 0 0 0,0.002 c 0.09814,0.30055 0.249369,0.56447 0.447266,0.78711 0.199113,0.224 0.449929,0.40069 0.75,0.52929 a 0.12090601,0.12090601 0 0 0 0.002,0 c 0.309103,0.12365 0.669446,0.18555 1.078125,0.18555 0.322563,0 0.610962,-0.0308 0.867188,-0.0918 0.255097,-0.0594 0.434406,-0.11214 0.554687,-0.17578 a 0.12090601,0.12090601 0 0 0 0.0625,-0.12695 l -0.113281,-0.68164 a 0.12090601,0.12090601 0 0 0 -0.169922,-0.0898 c -0.08637,0.0407 -0.232944,0.0891 -0.427734,0.14063 -0.179154,0.0432 -0.407169,0.0664 -0.685547,0.0664 -0.488095,0 -0.826011,-0.11584 -1.035157,-0.33008 -0.190003,-0.19464 -0.299092,-0.49388 -0.347656,-0.87305 l 2.966797,0 a 0.12090601,0.12090601 0 0 0 0.119141,-0.10547 c 0.0067,-0.0536 0.0098,-0.1085 0.0098,-0.16406 l 0,-0.13867 c 0,-0.79854 -0.166005,-1.40997 -0.519531,-1.82032 -0.350697,-0.41332 -0.862087,-0.62109 -1.5,-0.62109 z m 16.017578,0 c -0.532206,0 -0.969029,0.12629 -1.292968,0.38672 -0.322426,0.25392 -0.492188,0.61538 -0.492188,1.04687 0,0.21818 0.03859,0.41116 0.119141,0.57227 0.0773,0.1546 0.182308,0.28553 0.310547,0.39453 0.124894,0.10616 0.269368,0.20123 0.435546,0.28125 a 0.12090601,0.12090601 0 0 0 0.0059,0.002 c 0.164733,0.0706 0.334327,0.13881 0.509765,0.20899 0.356841,0.14388 0.610555,0.27612 0.751953,0.38086 0.131147,0.0971 0.1875,0.20869 0.1875,0.375 0,0.15785 -0.05061,0.2423 -0.18164,0.3125 a 0.12090601,0.12090601 0 0 0 -0.002,0.002 c -0.125915,0.0699 -0.353792,0.11524 -0.675781,0.11524 -0.329885,0 -0.590528,-0.0362 -0.775391,-0.0996 -0.203975,-0.0699 -0.351036,-0.12041 -0.441406,-0.1543 a 0.12090601,0.12090601 0 0 0 -0.16211,0.0879 l -0.148437,0.69922 a 0.12090601,0.12090601 0 0 0 0.07227,0.13672 c 0.09444,0.0405 0.24719,0.0896 0.476563,0.15429 l -0.002,-0.002 c 0.246538,0.0759 0.570866,0.11133 0.980469,0.11133 0.592625,0 1.060361,-0.10969 1.398437,-0.3457 0.345056,-0.23644 0.525391,-0.60248 0.525391,-1.05274 0,-0.22758 -0.03512,-0.42472 -0.107422,-0.58984 l 0,-0.002 c -0.07054,-0.16606 -0.175491,-0.30945 -0.310547,-0.42578 -0.127181,-0.11446 -0.280032,-0.21078 -0.458985,-0.29101 l 0.0039,0 c -0.173487,-0.0837 -0.369694,-0.16548 -0.587891,-0.24805 a 0.12090601,0.12090601 0 0 0 -0.002,0 c -0.161192,-0.0576 -0.299493,-0.11147 -0.412109,-0.16211 -0.107582,-0.0484 -0.195173,-0.0975 -0.267578,-0.14844 l -0.002,-0.002 c -0.06276,-0.0535 -0.110358,-0.10995 -0.142578,-0.16797 l 0,-0.002 c -0.02636,-0.0578 -0.04101,-0.125 -0.04101,-0.20898 0,-0.15703 0.05042,-0.2416 0.1875,-0.3125 a 0.12090601,0.12090601 0 0 0 0.0039,-0.002 c 0.149173,-0.0823 0.326363,-0.125 0.537109,-0.125 0.254622,0 0.468397,0.0258 0.640625,0.0742 a 0.12090601,0.12090601 0 0 0 0.0039,0 c 0.181427,0.0454 0.311284,0.0927 0.382812,0.13086 a 0.12090601,0.12090601 0 0 0 0.175781,-0.082 l 0.148438,-0.69922 a 0.12090601,0.12090601 0 0 0 -0.07617,-0.13867 c -0.05124,-0.0192 -0.121397,-0.0425 -0.210938,-0.0664 l -0.002,0 c -0.0882,-0.0251 -0.187571,-0.0446 -0.300781,-0.0625 -0.114142,-0.0238 -0.234612,-0.0428 -0.365234,-0.0547 l 0.0039,0.002 c -0.133035,-0.0182 -0.265896,-0.0293 -0.400391,-0.0293 z m 4.6386721,0 c -0.347783,0 -0.6685851,0.0656 -0.9589841,0.19531 -0.283657,0.12334 -0.527958,0.30161 -0.726563,0.53125 -0.19672,0.22187 -0.349698,0.48549 -0.458984,0.78907 a 0.12090601,0.12090601 0 0 0 -0.002,0.002 c -0.103947,0.30573 -0.154297,0.64061 -0.154297,1.00195 0,0.36089 0.04891,0.69509 0.146484,1 0.09799,0.3001 0.247138,0.56417 0.445313,0.78711 a 0.12090601,0.12090601 0 0 0 0,0.002 c 0.204393,0.22298 0.453669,0.39482 0.742187,0.51758 0.297289,0.12388 0.6390659,0.18555 1.0195315,0.18555 0.1220966,0 0.2467161,-0.009 0.375,-0.0273 0.1281378,-0.0119 0.2487333,-0.0293 0.3613281,-0.0527 0.1150756,-0.0182 0.2172432,-0.0401 0.3085938,-0.0645 a 0.12090601,0.12090601 0 0 0 0.00781,-0.002 c 0.091672,-0.0305 0.1648333,-0.061 0.2265625,-0.0996 a 0.12090601,0.12090601 0 0 0 0.054687,-0.1211 l -0.1132813,-0.68359 a 0.12090601,0.12090601 0 0 0 -0.1699218,-0.0898 c -0.086768,0.0408 -0.2166524,0.0833 -0.3867188,0.12305 -0.1646268,0.0384 -0.3527905,0.0586 -0.5605469,0.0586 -0.254865,0 -0.4647696,-0.0378 -0.6328121,-0.10547 -0.171693,-0.0751 -0.309791,-0.17554 -0.419922,-0.30664 -0.105047,-0.13187 -0.184079,-0.29076 -0.238282,-0.48047 -0.04894,-0.19175 -0.07422,-0.40547 -0.07422,-0.64063 0,-0.53066 0.115324,-0.91717 0.330078,-1.17383 0.220967,-0.25779 0.5271681,-0.38476 0.9570311,-0.38476 0.1729269,0 0.3344053,0.0159 0.4824219,0.0488 a 0.12090601,0.12090601 0 0 0 0,0.002 c 0.1564448,0.0335 0.2886541,0.0757 0.4003906,0.12891 a 0.12090601,0.12090601 0 0 0 0.1699219,-0.0781 l 0.1855469,-0.69141 a 0.12090601,0.12090601 0 0 0 -0.072266,-0.14257 c -0.1952063,-0.0793 -0.4010265,-0.13745 -0.6132813,-0.17383 -0.2106145,-0.0361 -0.4196897,-0.0547 -0.6308594,-0.0547 z m 21.8222659,0 c -0.02118,0.004 -0.01153,-6e-5 -0.02344,0.006 -0.277892,0.002 -0.542028,0.0201 -0.785156,0.0664 -0.247507,0.0414 -0.427481,0.0858 -0.550781,0.14062 a 0.12090601,0.12090601 0 0 0 -0.07031,0.12891 l 0.09766,0.67383 a 0.12090601,0.12090601 0 0 0 0.166016,0.0937 c 0.08537,-0.0352 0.226756,-0.0733 0.419922,-0.10743 a 0.12090601,0.12090601 0 0 0 0.002,0 c 0.193876,-0.0388 0.423125,-0.0586 0.685547,-0.0586 0.197884,0 0.348672,0.0298 0.453125,0.082 a 0.12090601,0.12090601 0 0 0 0.0059,0.004 c 0.116863,0.0508 0.202988,0.11835 0.265625,0.20508 a 0.12090601,0.12090601 0 0 0 0.002,0.004 c 0.06471,0.0846 0.110955,0.18228 0.136719,0.30078 a 0.12090601,0.12090601 0 0 0 0,0.002 c 0.02708,0.11916 0.03906,0.23935 0.03906,0.36523 l 0,0.0781 c -0.05541,-0.0104 -0.114724,-0.0175 -0.183594,-0.0273 l -0.0098,-0.002 c -0.07768,-0.0172 -0.161387,-0.0288 -0.248046,-0.0352 -0.09232,-0.0123 -0.182022,-0.0195 -0.269532,-0.0195 -0.264723,0 -0.518988,0.0275 -0.761718,0.082 -0.244603,0.055 -0.460178,0.14054 -0.648438,0.25977 -0.190548,0.12067 -0.348318,0.2812 -0.462891,0.47851 a 0.12090601,0.12090601 0 0 0 0,0.002 c -0.110635,0.20174 -0.164062,0.44036 -0.164062,0.70703 0,0.27641 0.04802,0.51871 0.144531,0.72461 0.09517,0.20302 0.230535,0.37325 0.404297,0.50195 a 0.12090601,0.12090601 0 0 0 0.002,0.002 c 0.171378,0.12064 0.371521,0.20627 0.59961,0.26172 0.226067,0.0549 0.472944,0.084 0.738281,0.084 0.183904,0 0.367816,-0.01 0.550781,-0.0274 0.188001,-0.0117 0.361378,-0.0252 0.521484,-0.043 0.158611,-0.0176 0.299865,-0.0369 0.423828,-0.0547 a 0.12090601,0.12090601 0 0 0 0.0039,0 c 0.128007,-0.0233 0.227953,-0.0413 0.296875,-0.0527 a 0.12090601,0.12090601 0 0 0 0.101562,-0.11914 l 0,-2.84375 c 0,-0.26524 -0.03045,-0.50891 -0.0918,-0.73047 l 0,-0.002 c -0.0623,-0.22951 -0.170532,-0.43189 -0.322265,-0.59766 l -0.0039,-0.002 c -0.149374,-0.17407 -0.348108,-0.30385 -0.589844,-0.39062 -0.239388,-0.0939 -0.526987,-0.14063 -0.863282,-0.14063 a 0.12090601,0.12090601 0 0 0 -0.01172,0 z m 11.128906,0 c -0.278229,0 -0.550686,0.0539 -0.814453,0.1582 -0.266479,0.10536 -0.501317,0.26467 -0.705078,0.47461 -0.205217,0.21143 -0.370584,0.47681 -0.492188,0.79297 -0.123107,0.3147 -0.18164,0.68054 -0.18164,1.09375 0,0.35433 0.04544,0.68403 0.136718,0.98828 a 0.12090601,0.12090601 0 0 0 0,0.002 c 0.09799,0.30008 0.247137,0.56416 0.445313,0.78711 0.199391,0.22431 0.452066,0.40077 0.751953,0.52929 a 0.12090601,0.12090601 0 0 0 0.002,0 c 0.30893,0.12358 0.667493,0.18555 1.076172,0.18555 0.322563,0 0.610962,-0.0308 0.867188,-0.0918 0.255097,-0.0594 0.434406,-0.11214 0.554687,-0.17578 a 0.12090601,0.12090601 0 0 0 0.0625,-0.12695 l -0.113281,-0.68164 a 0.12090601,0.12090601 0 0 0 -0.169922,-0.0898 c -0.08693,0.0409 -0.231181,0.0892 -0.425781,0.14063 -0.178986,0.0432 -0.409119,0.0664 -0.6875,0.0664 -0.488095,0 -0.823828,-0.1156 -1.033203,-0.33008 -0.190224,-0.19487 -0.300762,-0.49405 -0.34961,-0.87305 l 2.966797,0 a 0.12090601,0.12090601 0 0 0 0.119141,-0.10547 c 0.0063,-0.0503 0.01172,-0.1055 0.01172,-0.16406 l 0,-0.13867 c 0,-0.79854 -0.166005,-1.40997 -0.519531,-1.82032 -0.350851,-0.4135 -0.86404,-0.62109 -1.501953,-0.62109 z m 4.650391,0 c -0.532208,0 -0.967278,0.12646 -1.291016,0.38672 -0.322425,0.25392 -0.492187,0.61538 -0.492187,1.04687 0,0.21818 0.03859,0.41116 0.11914,0.57227 0.0769,0.1538 0.179846,0.2851 0.308594,0.39453 0.125401,0.1066 0.271673,0.2014 0.4375,0.28125 a 0.12090601,0.12090601 0 0 0 0.0059,0.002 c 0.164734,0.0706 0.334328,0.13881 0.509766,0.20899 0.356699,0.14383 0.608218,0.27584 0.75,0.38086 0.131147,0.0971 0.1875,0.20869 0.1875,0.375 0,0.15867 -0.04901,0.24249 -0.179688,0.3125 a 0.12090601,0.12090601 0 0 0 -0.002,0.002 c -0.125914,0.0699 -0.353791,0.11524 -0.675781,0.11524 -0.329884,0 -0.590527,-0.0362 -0.775391,-0.0996 -0.204199,-0.07 -0.353507,-0.12061 -0.443359,-0.1543 a 0.12090601,0.12090601 0 0 0 -0.162109,0.0879 l -0.148438,0.69922 a 0.12090601,0.12090601 0 0 0 0.07227,0.13672 c 0.09508,0.0408 0.249317,0.0897 0.478515,0.15429 l -0.002,-0.002 c 0.246539,0.0759 0.570867,0.11133 0.980469,0.11133 0.592627,0 1.058604,-0.10983 1.396484,-0.3457 0.345057,-0.23644 0.525391,-0.60248 0.525391,-1.05274 0,-0.22686 -0.03281,-0.4239 -0.105469,-0.58984 l 0,-0.002 c -0.07054,-0.16606 -0.17549,-0.30945 -0.310547,-0.42578 -0.127679,-0.11491 -0.282303,-0.21093 -0.460937,-0.29101 l 0.0039,0 c -0.173159,-0.0836 -0.367516,-0.1654 -0.585937,-0.24805 a 0.12090601,0.12090601 0 0 0 -0.002,0 c -0.161192,-0.0576 -0.299491,-0.11147 -0.412109,-0.16211 -0.108047,-0.0486 -0.197665,-0.098 -0.269531,-0.14844 l -0.002,-0.002 c -0.06316,-0.0539 -0.107692,-0.11138 -0.140625,-0.17187 -4.08e-4,-7.5e-4 -0.0015,-0.001 -0.002,-0.002 -0.02538,-0.057 -0.03906,-0.12275 -0.03906,-0.20507 0,-0.15703 0.05042,-0.2416 0.1875,-0.3125 a 0.12090601,0.12090601 0 0 0 0.0039,-0.002 c 0.149516,-0.0825 0.32441,-0.125 0.535157,-0.125 0.254621,0 0.468395,0.0258 0.640625,0.0742 a 0.12090601,0.12090601 0 0 0 0.0039,0 c 0.181619,0.0454 0.313896,0.0931 0.384766,0.13086 a 0.12090601,0.12090601 0 0 0 0.175781,-0.082 l 0.148437,-0.69922 a 0.12090601,0.12090601 0 0 0 -0.07617,-0.13867 c -0.05124,-0.0192 -0.121397,-0.0425 -0.210937,-0.0664 l -0.002,0 c -0.0882,-0.0251 -0.18757,-0.0446 -0.300782,-0.0625 -0.114469,-0.0239 -0.236662,-0.0428 -0.367187,-0.0547 l 0.0039,0.002 c -0.133035,-0.0182 -0.265896,-0.0293 -0.40039,-0.0293 z m -67.126953,0.0176 c -0.408017,0 -0.768597,0.0281 -1.085938,0.082 -0.310941,0.0528 -0.56219,0.10246 -0.753906,0.15039 a 0.12090601,0.12090601 0 0 0 -0.0918,0.11719 l 0,4.41797 a 0.12090601,0.12090601 0 0 0 0.121094,0.12109 l 0.814453,0 a 0.12090601,0.12090601 0 0 0 0.121094,-0.12109 l 0,-3.74024 c 0.01413,-0.003 0.02031,-0.005 0.03711,-0.008 0.06483,-0.0106 0.13931,-0.0176 0.21875,-0.0234 a 0.12090601,0.12090601 0 0 0 0.0059,-0.002 c 0.08558,-0.0113 0.173756,-0.0196 0.263672,-0.0254 0.08988,-0.006 0.177839,-0.008 0.263672,-0.008 0.204795,0 0.368916,0.0272 0.496094,0.0781 a 0.12090601,0.12090601 0 0 0 0.0039,0.002 c 0.125506,0.0452 0.221675,0.11621 0.294922,0.21875 0.0741,0.10374 0.129364,0.24609 0.162109,0.43164 a 0.12090601,0.12090601 0 0 0 0,0.002 c 0.03849,0.18696 0.05859,0.42099 0.05859,0.69531 l 0,2.37891 a 0.12090601,0.12090601 0 0 0 0.121094,0.12109 l 0.814453,0 a 0.12090601,0.12090601 0 0 0 0.121094,-0.12109 l 0,-2.55469 c 0,-0.31688 -0.03118,-0.60829 -0.0918,-0.875 -0.06139,-0.2701 -0.169596,-0.50561 -0.326172,-0.70117 l -0.0039,-0.004 c -0.152836,-0.20206 -0.359329,-0.35925 -0.613282,-0.46484 l -0.002,0 c -0.259347,-0.11351 -0.57647,-0.16797 -0.949218,-0.16797 z m 13.816406,0 c -0.363413,0 -0.694269,0.0351 -0.990235,0.10156 -0.287508,0.0588 -0.530877,0.12272 -0.730468,0.19531 a 0.12090601,0.12090601 0 0 0 -0.08008,0.11329 l 0,4.35742 a 0.12090601,0.12090601 0 0 0 0.121094,0.12109 l 0.814453,0 a 0.12090601,0.12090601 0 0 0 0.121094,-0.12109 l 0,-3.72461 c 0.05192,-0.0117 0.09364,-0.0214 0.191406,-0.041 a 0.12090601,0.12090601 0 0 0 0.0039,-0.002 c 0.143168,-0.033 0.285489,-0.0488 0.427734,-0.0488 0.227209,0 0.409246,0.0172 0.541016,0.0488 a 0.12090601,0.12090601 0 0 0 0.0039,0.002 c 0.148054,0.0284 0.252069,0.0551 0.304687,0.0742 a 0.12090601,0.12090601 0 0 0 0.160157,-0.0898 l 0.140625,-0.70899 a 0.12090601,0.12090601 0 0 0 -0.08008,-0.13867 c -0.04791,-0.016 -0.10825,-0.0269 -0.1875,-0.0391 -0.07156,-0.0175 -0.150398,-0.0332 -0.238281,-0.0449 -0.08795,-0.0171 -0.178499,-0.0289 -0.271484,-0.0352 -0.09163,-0.0122 -0.175149,-0.0195 -0.251953,-0.0195 z m 22.1972654,0 c -0.38545,0 -0.7297266,0.0295 -1.03125,0.0898 -0.2863167,0.0526 -0.5273789,0.10305 -0.7226563,0.15039 a 0.12090601,0.12090601 0 0 0 -0.091797,0.11719 l 0,6.0293 A 0.12090601,0.12090601 0 0 0 -4.875,123.33203 l 0.8144531,0 a 0.12090601,0.12090601 0 0 0 0.1210938,-0.12109 l 0,-1.63477 c 0.088612,0.0427 0.1606985,0.0857 0.2832031,0.12891 a 0.12090601,0.12090601 0 0 0 0.00195,0.002 c 0.2191802,0.0751 0.466844,0.11133 0.7402344,0.11133 0.3412529,0 0.6472868,-0.0625 0.9160156,-0.1875 0.2716148,-0.12345 0.5045035,-0.29525 0.6914063,-0.51953 0.1862509,-0.2235 0.32259862,-0.4908 0.41406248,-0.79492 l 0,-0.002 c 0.0970985,-0.30412 0.14648437,-0.63373 0.14648437,-0.98828 0,-0.37889 -0.0574419,-0.72229 -0.17382813,-1.02929 l 0,-0.002 C -1.0299345,117.98391 -1.1912001,117.71736 -1.4023438,117.5 c -0.2109498,-0.21715 -0.4657556,-0.38362 -0.7597656,-0.5 -0.2954785,-0.11696 -0.6251234,-0.17578 -0.9882812,-0.17578 z m 10.4628906,0 c -0.4080166,0 -0.770467,0.0281 -1.0878906,0.082 -0.3109414,0.0528 -0.562189,0.10246 -0.7539063,0.15039 a 0.12090601,0.12090601 0 0 0 -0.091797,0.11719 l 0,4.41797 A 0.12090601,0.12090601 0 0 0 5.5,121.71289 l 0.8144531,0 a 0.12090601,0.12090601 0 0 0 0.1210938,-0.12109 l 0,-3.74024 c 0.014881,-0.003 0.021515,-0.005 0.039063,-0.008 0.065184,-0.0107 0.1374968,-0.0176 0.2167968,-0.0234 a 0.12090601,0.12090601 0 0 0 0.00586,-0.002 c 0.085583,-0.0113 0.1737563,-0.0196 0.2636719,-0.0254 0.089877,-0.006 0.1778391,-0.008 0.2636719,-0.008 0.2047951,0 0.3712161,0.0274 0.4980468,0.0781 a 0.12090601,0.12090601 0 0 0 0.00391,0.002 c 0.1251827,0.0451 0.2192269,0.11552 0.2929687,0.21875 0.074096,0.10374 0.1293642,0.24609 0.1621094,0.43164 a 0.12090601,0.12090601 0 0 0 0,0.002 c 0.038492,0.18695 0.058594,0.42099 0.058594,0.69531 l 0,2.37891 a 0.12090601,0.12090601 0 0 0 0.1210937,0.12109 l 0.8144531,0 A 0.12090601,0.12090601 0 0 0 9.296875,121.5918 l 0,-2.55469 c 10e-8,-0.31688 -0.031181,-0.60829 -0.091797,-0.875 -0.061389,-0.2701 -0.1695955,-0.50561 -0.3261719,-0.70117 l -0.00391,-0.004 c -0.1528359,-0.20206 -0.3593292,-0.35925 -0.6132812,-0.46484 l -0.00195,0 C 8.0006471,116.87878 7.6852465,116.82422 7.3125,116.82422 Z m 12.277344,0 c -0.363413,0 -0.694269,0.0351 -0.990235,0.10156 -0.287511,0.0588 -0.530885,0.12274 -0.730468,0.19531 a 0.12090601,0.12090601 0 0 0 -0.08008,0.11329 l 0,4.35742 a 0.12090601,0.12090601 0 0 0 0.121094,0.12109 l 0.8125,0 a 0.12090601,0.12090601 0 0 0 0.121094,-0.12109 l 0,-3.72461 c 0.05192,-0.0117 0.09364,-0.0214 0.191406,-0.041 a 0.12090601,0.12090601 0 0 0 0.0039,-0.002 c 0.143167,-0.033 0.28549,-0.0488 0.427735,-0.0488 0.227209,0 0.409246,0.0172 0.541015,0.0488 a 0.12090601,0.12090601 0 0 0 0.0039,0.002 c 0.148243,0.0285 0.254762,0.0554 0.30664,0.0742 a 0.12090601,0.12090601 0 0 0 0.160157,-0.0898 l 0.140625,-0.70899 a 0.12090601,0.12090601 0 0 0 -0.08008,-0.13867 c -0.04791,-0.016 -0.10825,-0.0269 -0.1875,-0.0391 -0.07156,-0.0175 -0.150398,-0.0332 -0.238281,-0.0449 -0.08795,-0.0171 -0.178499,-0.0289 -0.271484,-0.0352 -0.09163,-0.0122 -0.175149,-0.0195 -0.251953,-0.0195 z m -37.683594,0.0977 a 0.12090601,0.12090601 0 0 0 -0.109375,0.12109 l 0,4.54883 a 0.12090601,0.12090601 0 0 0 0.121094,0.12109 l 0.814453,0 a 0.12090601,0.12090601 0 0 0 0.121094,-0.12109 l 0,-4.54883 a 0.12090601,0.12090601 0 0 0 -0.121094,-0.12109 l -0.814453,0 a 0.12090601,0.12090601 0 0 0 -0.01172,0 z m 10.7851562,0 a 0.12090601,0.12090601 0 0 0 -0.109375,0.12109 l 0,4.54883 a 0.12090601,0.12090601 0 0 0 0.1210938,0.12109 l 0.8144531,0 a 0.12090601,0.12090601 0 0 0 0.1210938,-0.12109 l 0,-4.54883 a 0.12090601,0.12090601 0 0 0 -0.1210938,-0.12109 l -0.8144531,0 a 0.12090601,0.12090601 0 0 0 -0.011719,0 z m 10.375,0 a 0.12090601,0.12090601 0 0 0 -0.109375,0.12109 l 0,4.54883 a 0.12090601,0.12090601 0 0 0 0.1210938,0.12109 l 0.8144531,0 a 0.12090601,0.12090601 0 0 0 0.1210938,-0.12109 l 0,-4.54883 a 0.12090601,0.12090601 0 0 0 -0.1210938,-0.12109 l -0.8144531,0 a 0.12090601,0.12090601 0 0 0 -0.011719,0 z m 12.4101558,0 a 0.12090601,0.12090601 0 0 0 -0.109374,0.12109 l 0,4.54883 a 0.12090601,0.12090601 0 0 0 0.121093,0.12109 l 0.8125,0 a 0.12090601,0.12090601 0 0 0 0.121094,-0.12109 l 0,-4.54883 a 0.12090601,0.12090601 0 0 0 -0.121094,-0.12109 l -0.8125,0 a 0.12090601,0.12090601 0 0 0 -0.01172,0 z m -45.779296,0.81835 c 0.303361,0 0.516151,0.10047 0.68164,0.3125 a 0.12090601,0.12090601 0 0 0 0.002,0.002 c 0.150316,0.18223 0.222485,0.41931 0.238282,0.70312 l -1.970703,0 c 0.01833,-0.10006 0.03453,-0.20054 0.06836,-0.29883 0.0538,-0.13988 0.124788,-0.26123 0.214844,-0.36718 0.0889,-0.10459 0.194112,-0.1869 0.320312,-0.25 a 0.12090601,0.12090601 0 0 0 0.002,0 c 0.127421,-0.0663 0.273704,-0.10157 0.44336,-0.10157 z m 53.607422,0 c 0.30336,0 0.518356,0.10079 0.683593,0.3125 a 0.12090601,0.12090601 0 0 0 0.002,0.002 c 0.150082,0.18194 0.220861,0.41908 0.236328,0.70312 l -1.970703,0 c 0.01833,-0.10006 0.03453,-0.20055 0.06836,-0.29883 0.0538,-0.13988 0.124788,-0.26123 0.214843,-0.36718 0.08839,-0.10399 0.195664,-0.1867 0.322266,-0.25 a 0.12090601,0.12090601 0 0 0 0.002,0 c 0.127813,-0.0665 0.271751,-0.10157 0.441407,-0.10157 z m -44.84961,0.0352 c 0.207342,0 0.396752,0.0358 0.56836,0.10547 0.159503,0.0648 0.267272,0.12924 0.351562,0.19141 l 0,2.71093 c -0.06914,0.0162 -0.136479,0.0339 -0.246094,0.0508 -0.138779,0.0165 -0.316685,0.0254 -0.533203,0.0254 -0.410998,-1e-5 -0.721061,-0.12943 -0.960937,-0.39063 -0.23721,-0.26431 -0.361329,-0.64205 -0.361328,-1.15234 0,-0.22585 0.02015,-0.4351 0.06445,-0.62891 0.04356,-0.19056 0.114199,-0.34883 0.208984,-0.48047 a 0.12090601,0.12090601 0 0 0 0.002,-0.002 c 0.09434,-0.13627 0.212178,-0.23989 0.357422,-0.3125 0.148931,-0.077 0.330472,-0.11719 0.548828,-0.11719 z m 18.3847658,0.0176 c 0.411,0 0.7210623,0.12943 0.9609374,0.39062 0.2371982,0.25829 0.3613282,0.6315 0.3613282,1.14258 0,0.22517 -0.021943,0.43439 -0.066406,0.62891 -0.043701,0.18573 -0.1134997,0.34646 -0.2089843,0.48437 -0.093257,0.12879 -0.2138952,0.23126 -0.3671876,0.31055 -0.1431498,0.0716 -0.3200223,0.10937 -0.5390624,0.10938 -0.2080503,-1e-5 -0.3974206,-0.0341 -0.5683594,-0.10352 -0.1589571,-0.0646 -0.2667839,-0.13047 -0.3515625,-0.19336 l 0,-2.70312 c 0.063412,-0.0141 0.1238121,-0.0289 0.2167969,-0.041 0.131917,-0.0165 0.320727,-0.0254 0.5625,-0.0254 z m 15.5468752,1.81055 c 0.181562,0 0.332919,0.0117 0.451172,0.0332 a 0.12090601,0.12090601 0 0 0 0.0059,0 c 0.09375,0.0122 0.138054,0.0282 0.183594,0.043 l 0,1.16211 c -0.07828,0.0141 -0.156699,0.0268 -0.265625,0.0351 -0.142272,0.006 -0.305849,0.008 -0.496094,0.008 -0.305746,0 -0.536951,-0.052 -0.697266,-0.14649 l -0.002,-0.002 c -0.146688,-0.0928 -0.222656,-0.24567 -0.222656,-0.50977 0,-0.13734 0.03222,-0.2303 0.08789,-0.29883 a 0.12090601,0.12090601 0 0 0 0.002,-0.002 c 0.06528,-0.0854 0.141264,-0.14929 0.234375,-0.19336 a 0.12090601,0.12090601 0 0 0 0.0039,-0.002 c 0.103992,-0.052 0.216047,-0.0857 0.337891,-0.10156 0.136351,-0.0171 0.260907,-0.0254 0.376953,-0.0254 z"
         id="path4316"
         style="font-style:normal;font-variant:normal;font-weight:normal;font-stretch:normal;font-size:8.75px;font-family:Ubuntu;-inkscape-font-specification:Ubuntu;letter-spacing:0.2px;fill:#779b9b;fill-opacity:1"
         inkscape:original="M -33.712891 40.044922 C -34.029478 40.088393 -34.3636 40.207741 -34.714844 40.404297 C -35.015182 40.572367 -35.270627 40.767539 -35.482422 40.986328 C -35.686277 41.207359 -35.83368 41.449397 -35.925781 41.714844 C -36.017881 41.98029 -36.048305 42.26887 -36.015625 42.578125 C -35.975003 42.889622 -35.85777 43.2183 -35.664062 43.564453 C -35.510236 43.83934 -35.348282 44.068592 -35.177734 44.253906 C -35.004338 44.444311 -34.869632 44.569959 -34.775391 44.630859 L -34.236328 44.199219 C -34.325479 44.135469 -34.441316 44.028298 -34.583984 43.880859 C -34.718713 43.735663 -34.854557 43.538497 -34.994141 43.289062 C -35.241972 42.84619 -35.317709 42.461165 -35.220703 42.132812 C -35.123697 41.80446 -34.87766 41.50933 -34.482422 41.248047 L -32.960938 43.966797 C -32.91738 43.94907 -32.873938 43.927984 -32.828125 43.902344 L -32.705078 43.833984 C -32.022953 43.452267 -31.597139 43.024916 -31.425781 42.554688 C -31.249333 42.08161 -31.310268 41.579423 -31.609375 41.044922 C -31.737564 40.815851 -31.906204 40.615777 -32.115234 40.445312 C -32.324264 40.274848 -32.562997 40.153163 -32.830078 40.082031 C -33.09716 40.010898 -33.391213 39.998602 -33.712891 40.044922 z M -33.445312 40.808594 C -33.284474 40.785427 -33.128752 40.788793 -32.978516 40.818359 C -32.828279 40.847925 -32.688047 40.906153 -32.558594 40.994141 C -32.421202 41.084371 -32.307954 41.210152 -32.216797 41.373047 C -32.054424 41.663205 -32.030884 41.948826 -32.148438 42.228516 C -32.258068 42.510418 -32.475295 42.73966 -32.798828 42.914062 L -33.902344 40.943359 C -33.756355 40.881714 -33.603303 40.83684 -33.445312 40.808594 z M -30.324219 43.839844 L -34.181641 45.998047 L -33.783203 46.708984 L -30.431641 44.832031 C -30.412301 44.854633 -30.381357 44.891106 -30.339844 44.941406 C -30.295448 44.996779 -30.251971 45.060472 -30.207031 45.128906 C -30.154092 45.19955 -30.101421 45.272947 -30.050781 45.351562 C -30.000081 45.430145 -29.952883 45.507627 -29.910156 45.583984 C -29.804759 45.772332 -29.74297 45.943861 -29.722656 46.099609 C -29.69725 46.252509 -29.717077 46.397024 -29.78125 46.533203 C -29.845421 46.669382 -29.955343 46.802291 -30.111328 46.929688 C -30.264464 47.062174 -30.462688 47.19725 -30.707031 47.333984 L -32.783203 48.496094 L -32.386719 49.205078 L -30.15625 47.957031 C -29.886455 47.806053 -29.65448 47.643042 -29.458984 47.466797 C -29.26349 47.290552 -29.121746 47.094476 -29.035156 46.878906 C -28.94063 46.665578 -28.9092 46.430965 -28.939453 46.173828 C -28.964618 45.913843 -29.065572 45.626157 -29.242188 45.310547 C -29.438743 44.959304 -29.635239 44.662127 -29.832031 44.417969 C -30.028823 44.173811 -30.192338 43.97995 -30.324219 43.839844 z M -26.675781 47.496094 L -30.21875 49.478516 C -30.483455 49.626645 -30.705888 49.778924 -30.886719 49.933594 C -31.059609 50.090505 -31.184097 50.259546 -31.261719 50.443359 C -31.339339 50.627173 -31.36543 50.826105 -31.339844 51.039062 C -31.306318 51.254262 -31.21543 51.49583 -31.064453 51.765625 C -30.936264 51.994697 -30.79437 52.183246 -30.638672 52.330078 C -30.488065 52.479759 -30.374342 52.579533 -30.298828 52.630859 L -29.787109 52.166016 C -29.835957 52.126505 -29.923858 52.055038 -30.048828 51.951172 C -30.165858 51.849547 -30.282701 51.690363 -30.402344 51.476562 C -30.47071 51.35439 -30.516376 51.239579 -30.537109 51.130859 C -30.557836 51.022139 -30.548799 50.917373 -30.511719 50.816406 C -30.469545 50.712591 -30.393374 50.609572 -30.283203 50.507812 C -30.167942 50.403205 -30.011029 50.29469 -29.8125 50.183594 L -27.980469 49.158203 L -27.138672 50.662109 L -26.542969 50.330078 L -27.384766 48.826172 L -26.15625 48.136719 L -26.675781 47.496094 z M -26.205078 51.328125 L -30.007812 53.455078 L -29.611328 54.166016 L -26.273438 52.298828 C -26.240468 52.333855 -26.176746 52.406513 -26.080078 52.519531 C -25.975471 52.634793 -25.884612 52.760225 -25.810547 52.892578 C -25.696602 53.096197 -25.620751 53.269709 -25.580078 53.414062 C -25.531465 53.560658 -25.501208 53.666985 -25.490234 53.734375 L -24.802734 53.509766 C -24.809641 53.473526 -24.826662 53.41953 -24.853516 53.347656 C -24.872429 53.278024 -24.899094 53.203148 -24.931641 53.121094 C -24.959073 53.036174 -24.99269 52.951467 -25.033203 52.867188 C -25.065748 52.785133 -25.098626 52.71343 -25.132812 52.652344 C -25.30658 52.341824 -25.491921 52.077474 -25.6875 51.859375 C -25.877988 51.638428 -26.049987 51.461928 -26.205078 51.328125 z M -25.5 54.720703 C -25.816587 54.764174 -26.15071 54.883522 -26.501953 55.080078 C -26.802292 55.248148 -27.057737 55.441368 -27.269531 55.660156 C -27.473387 55.881188 -27.622742 56.125178 -27.714844 56.390625 C -27.80695 56.656071 -27.835421 56.942698 -27.802734 57.251953 C -27.762112 57.56345 -27.644879 57.892129 -27.451172 58.238281 C -27.297345 58.513167 -27.135391 58.744373 -26.964844 58.929688 C -26.791447 59.120092 -26.658694 59.245741 -26.564453 59.306641 L -26.023438 58.873047 C -26.112588 58.809298 -26.228426 58.704079 -26.371094 58.556641 C -26.505823 58.411444 -26.64362 58.214278 -26.783203 57.964844 C -27.031034 57.521972 -27.106772 57.136946 -27.009766 56.808594 C -26.91276 56.480241 -26.666722 56.185111 -26.271484 55.923828 L -24.75 58.642578 C -24.706443 58.624851 -24.661048 58.601812 -24.615234 58.576172 L -24.494141 58.507812 C -23.812015 58.126094 -23.384249 57.700697 -23.212891 57.230469 C -23.036443 56.757391 -23.097378 56.253251 -23.396484 55.71875 C -23.524673 55.489678 -23.693314 55.289605 -23.902344 55.119141 C -24.111373 54.948677 -24.350105 54.828945 -24.617188 54.757812 C -24.884269 54.686679 -25.178322 54.674383 -25.5 54.720703 z M -25.234375 55.482422 C -25.073536 55.459255 -24.917815 55.462621 -24.767578 55.492188 C -24.617341 55.521753 -24.477109 55.581934 -24.347656 55.669922 C -24.210264 55.760152 -24.095062 55.885933 -24.003906 56.048828 C -23.841532 56.338985 -23.819946 56.624607 -23.9375 56.904297 C -24.047098 57.186258 -24.264325 57.413546 -24.587891 57.587891 L -25.689453 55.617188 C -25.543464 55.555542 -25.392365 55.510669 -25.234375 55.482422 z M -10.763672 84.800781 C -10.812941 84.808301 -10.880998 84.823336 -10.96875 84.845703 C -11.051411 84.865223 -11.144735 84.89474 -11.25 84.933594 C -11.358114 84.967358 -11.472156 85.010013 -11.589844 85.0625 C -11.71038 85.109901 -11.825509 85.165849 -11.9375 85.228516 C -12.385463 85.479196 -12.681398 85.780776 -12.824219 86.134766 C -12.969888 86.483666 -12.944603 86.834304 -12.748047 87.185547 C -12.648345 87.363714 -12.53375 87.495996 -12.404297 87.583984 C -12.274844 87.671971 -12.134611 87.732152 -11.984375 87.761719 C -11.834138 87.791285 -11.672522 87.799802 -11.498047 87.789062 C -11.32133 87.770389 -11.140024 87.748983 -10.953125 87.724609 C -10.566299 87.675249 -10.274493 87.6626 -10.080078 87.6875 C -9.8856623 87.712396 -9.7413849 87.811298 -9.6445312 87.984375 C -9.5505273 88.152361 -9.5525398 88.314584 -9.6523438 88.470703 C -9.7470574 88.623974 -9.9403109 88.782941 -10.230469 88.945312 C -10.525717 89.110536 -10.777884 89.211387 -10.990234 89.25 C -11.202585 89.28862 -11.358492 89.315045 -11.457031 89.330078 L -11.246094 90.013672 C -11.157735 90.004332 -10.997442 89.973069 -10.767578 89.917969 C -10.534865 89.867958 -10.243821 89.743431 -9.8925781 89.546875 C -9.3886201 89.26486 -9.0550211 88.95456 -8.890625 88.615234 C -8.7211385 88.27306 -8.7382575 87.91925 -8.9433594 87.552734 C -9.048759 87.364386 -9.1638044 87.22288 -9.2910156 87.126953 C -9.4210756 87.025934 -9.5664337 86.959541 -9.7246094 86.927734 C -9.8776946 86.893081 -10.045812 86.883957 -10.230469 86.900391 C -10.417973 86.911731 -10.627239 86.934617 -10.855469 86.96875 C -11.026489 86.997603 -11.175287 87.016184 -11.302734 87.027344 C -11.430182 87.038505 -11.542825 87.03837 -11.642578 87.027344 C -11.740089 87.008377 -11.825772 86.975921 -11.898438 86.929688 C -11.966013 86.880603 -12.023839 86.813101 -12.072266 86.726562 C -12.166274 86.558577 -12.161535 86.395296 -12.056641 86.236328 C -11.954595 86.07227 -11.803997 85.935316 -11.605469 85.824219 C -11.376397 85.696028 -11.167049 85.609793 -10.978516 85.564453 C -10.792831 85.514013 -10.649927 85.486375 -10.550781 85.484375 L -10.763672 84.800781 z M -14.921875 87.558594 C -15.394952 87.382146 -15.899093 87.445034 -16.433594 87.744141 C -16.662666 87.872329 -16.860786 88.04097 -17.03125 88.25 C -17.201714 88.459029 -17.323399 88.695809 -17.394531 88.962891 C -17.465665 89.229973 -17.477961 89.524025 -17.431641 89.845703 C -17.38817 90.16229 -17.268822 90.496413 -17.072266 90.847656 C -16.904196 91.147995 -16.710977 91.405393 -16.492188 91.617188 C -16.271157 91.821043 -16.027165 91.968446 -15.761719 92.060547 C -15.496272 92.152647 -15.209646 92.181117 -14.900391 92.148438 C -14.588894 92.107815 -14.258263 91.992535 -13.912109 91.798828 C -13.637223 91.645001 -13.40797 91.481094 -13.222656 91.310547 C -13.032251 91.13715 -12.906603 91.004398 -12.845703 90.910156 L -13.279297 90.369141 C -13.343046 90.458291 -13.448264 90.574129 -13.595703 90.716797 C -13.7409 90.851526 -13.938067 90.989324 -14.1875 91.128906 C -14.630373 91.376738 -15.015397 91.452475 -15.34375 91.355469 C -15.672103 91.258463 -15.967233 91.012425 -16.228516 90.617188 L -13.509766 89.095703 C -13.527492 89.052146 -13.548579 89.006751 -13.574219 88.960938 L -13.642578 88.839844 C -14.024295 88.157718 -14.451646 87.729952 -14.921875 87.558594 z M -15.248047 88.283203 C -14.966145 88.392834 -14.738856 88.61006 -14.564453 88.933594 L -16.533203 90.035156 C -16.594842 89.889167 -16.639715 89.738069 -16.667969 89.580078 C -16.691135 89.419239 -16.68777 89.263518 -16.658203 89.113281 C -16.628638 88.963045 -16.57041 88.822812 -16.482422 88.693359 C -16.392192 88.555967 -16.266411 88.442718 -16.103516 88.351562 C -15.813358 88.189189 -15.527737 88.16565 -15.248047 88.283203 z M -23.314453 89.158203 L -23.957031 89.677734 L -20.708984 95.480469 L -19.998047 95.083984 L -21.845703 91.785156 C -21.825952 91.760732 -21.791594 91.724341 -21.744141 91.677734 C -21.691605 91.628278 -21.63198 91.579357 -21.566406 91.529297 C -21.498595 91.471297 -21.427312 91.413182 -21.351562 91.357422 C -21.275812 91.30166 -21.199404 91.253664 -21.123047 91.210938 C -20.934699 91.105539 -20.763171 91.041798 -20.607422 91.021484 C -20.454522 90.996078 -20.310007 91.015905 -20.173828 91.080078 C -20.037649 91.144249 -19.90474 91.254172 -19.777344 91.410156 C -19.644857 91.563292 -19.511735 91.761516 -19.375 92.005859 L -18.212891 94.083984 L -17.501953 93.685547 L -18.75 91.457031 C -18.900978 91.187235 -19.06399 90.953307 -19.240234 90.757812 C -19.41648 90.562317 -19.612555 90.422527 -19.828125 90.335938 C -20.041453 90.241411 -20.276066 90.208028 -20.533203 90.238281 C -20.793188 90.263447 -21.082828 90.3644 -21.398438 90.541016 C -21.546062 90.623626 -21.686643 90.723842 -21.822266 90.839844 C -21.955647 90.947906 -22.073868 91.064483 -22.177734 91.189453 L -23.314453 89.158203 z M -24.314453 92.404297 C -24.51438 92.429277 -24.710991 92.475763 -24.90625 92.544922 C -25.101509 92.614081 -25.28863 92.699125 -25.466797 92.798828 C -25.756955 92.9612 -25.992444 93.16351 -26.171875 93.404297 C -26.349067 93.637144 -26.465944 93.89237 -26.523438 94.171875 C -26.583777 94.446289 -26.587909 94.737169 -26.537109 95.042969 C -26.481215 95.34592 -26.368184 95.649649 -26.197266 95.955078 C -26.026347 96.260507 -25.829348 96.517616 -25.605469 96.726562 C -25.384437 96.930419 -25.140446 97.077821 -24.875 97.169922 C -24.604463 97.259175 -24.321616 97.287933 -24.025391 97.255859 C -23.724075 97.220934 -23.412498 97.115011 -23.091797 96.935547 C -22.989987 96.878574 -22.891323 96.811421 -22.792969 96.736328 C -22.686675 96.663477 -22.589231 96.590111 -22.503906 96.515625 C -22.41573 96.446231 -22.340351 96.3795 -22.275391 96.316406 C -22.213276 96.248223 -22.169058 96.190818 -22.142578 96.142578 L -22.574219 95.601562 C -22.637967 95.690713 -22.736367 95.796876 -22.869141 95.917969 C -23.001915 96.039061 -23.163214 96.152412 -23.351562 96.257812 C -23.585724 96.38885 -23.802025 96.467208 -24.001953 96.492188 C -24.204729 96.512075 -24.396102 96.487363 -24.574219 96.419922 C -24.747244 96.349633 -24.907986 96.239524 -25.058594 96.089844 C -25.20411 95.937314 -25.337389 95.754816 -25.457031 95.541016 C -25.724803 95.06251 -25.823033 94.639665 -25.753906 94.273438 C -25.679689 93.904361 -25.445886 93.608913 -25.048828 93.386719 C -24.891023 93.298407 -24.734613 93.22996 -24.580078 93.183594 C -24.420453 93.134374 -24.272105 93.10657 -24.136719 93.097656 L -24.314453 92.404297 z M -28.376953 94.597656 C -28.413193 94.604563 -28.467189 94.621584 -28.539062 94.648438 C -28.608694 94.667351 -28.685523 94.694016 -28.767578 94.726562 C -28.852497 94.753995 -28.937204 94.787612 -29.021484 94.828125 C -29.103538 94.86067 -29.175241 94.893548 -29.236328 94.927734 C -29.546848 95.101502 -29.811198 95.286843 -30.029297 95.482422 C -30.250244 95.67291 -30.426745 95.844909 -30.560547 96 L -28.433594 99.802734 L -27.722656 99.40625 L -29.589844 96.068359 C -29.554817 96.035389 -29.482159 95.971668 -29.369141 95.875 C -29.25388 95.770393 -29.128446 95.679533 -28.996094 95.605469 C -28.792474 95.491523 -28.618963 95.415673 -28.474609 95.375 C -28.328013 95.326387 -28.221687 95.29613 -28.154297 95.285156 L -28.376953 94.597656 z M -32.486328 97.388672 C -32.959405 97.212224 -33.463546 97.273159 -33.998047 97.572266 C -34.227118 97.700454 -34.427192 97.869095 -34.597656 98.078125 C -34.76812 98.287154 -34.889805 98.525887 -34.960938 98.792969 C -35.032071 99.06005 -35.044367 99.354103 -34.998047 99.675781 C -34.954576 99.992371 -34.833275 100.32649 -34.636719 100.67773 C -34.468649 100.97807 -34.275429 101.23351 -34.056641 101.44531 C -33.835609 101.64917 -33.593572 101.79853 -33.328125 101.89062 C -33.062679 101.98269 -32.774099 102.01118 -32.464844 101.97852 C -32.153346 101.93789 -31.824668 101.82066 -31.478516 101.62695 C -31.20363 101.47313 -30.974376 101.31117 -30.789062 101.14062 C -30.598657 100.96723 -30.473009 100.83447 -30.412109 100.74023 L -30.84375 100.19922 C -30.907499 100.28837 -31.012718 100.4042 -31.160156 100.54688 C -31.305353 100.6816 -31.504472 100.8194 -31.753906 100.95898 C -32.196778 101.20682 -32.581804 101.28255 -32.910156 101.18555 C -33.238509 101.08854 -33.533639 100.8425 -33.794922 100.44727 L -31.076172 98.925781 C -31.093839 98.882191 -31.114985 98.836829 -31.140625 98.791016 L -31.208984 98.669922 C -31.590702 97.987797 -32.016099 97.56003 -32.486328 97.388672 z M -32.814453 98.113281 C -32.53255 98.222912 -32.303309 98.440139 -32.128906 98.763672 L -34.099609 99.865234 C -34.161248 99.719245 -34.206122 99.568147 -34.234375 99.410156 C -34.257542 99.249318 -34.254176 99.093596 -34.224609 98.943359 C -34.195044 98.793123 -34.136816 98.65289 -34.048828 98.523438 C -33.958598 98.386045 -33.830864 98.270844 -33.667969 98.179688 C -33.377811 98.017314 -33.094142 97.995728 -32.814453 98.113281 z M -40.880859 98.988281 L -41.521484 99.507812 L -38.275391 105.31055 L -37.564453 104.91406 L -39.410156 101.61523 C -39.390398 101.5908 -39.357994 101.55441 -39.310547 101.50781 C -39.258004 101.45837 -39.198379 101.40944 -39.132812 101.35938 C -39.065001 101.30135 -38.993719 101.24323 -38.917969 101.1875 C -38.842218 101.13174 -38.76581 101.08375 -38.689453 101.04102 C -38.501105 100.93564 -38.329576 100.8719 -38.173828 100.85156 C -38.020928 100.8261 -37.876413 100.84596 -37.740234 100.91016 C -37.604056 100.97433 -37.471147 101.08425 -37.34375 101.24023 C -37.211263 101.39337 -37.076188 101.5916 -36.939453 101.83594 L -35.777344 103.91406 L -35.068359 103.51562 L -36.316406 101.28711 C -36.467384 101.01732 -36.630395 100.78338 -36.806641 100.58789 C -36.982885 100.39239 -37.178961 100.2526 -37.394531 100.16602 C -37.607859 100.07148 -37.842473 100.03809 -38.099609 100.06836 C -38.359595 100.09353 -38.647281 100.19448 -38.962891 100.37109 C -39.110515 100.45371 -39.253049 100.55392 -39.388672 100.66992 C -39.522053 100.77799 -39.640275 100.89456 -39.744141 101.01953 L -40.880859 98.988281 z M -41.878906 102.23438 C -42.078834 102.25935 -42.277398 102.30584 -42.472656 102.375 C -42.667915 102.44416 -42.855036 102.5292 -43.033203 102.62891 C -43.32336 102.79128 -43.556897 102.99164 -43.736328 103.23242 C -43.913521 103.46527 -44.03235 103.72245 -44.089844 104.00195 C -44.15019 104.27637 -44.154322 104.56725 -44.103516 104.87305 C -44.047622 105.176 -43.93459 105.47973 -43.763672 105.78516 C -43.592754 106.09059 -43.395755 106.3477 -43.171875 106.55664 C -42.950844 106.7605 -42.706853 106.9079 -42.441406 107 C -42.17087 107.08927 -41.888023 107.118 -41.591797 107.08594 C -41.290481 107.05102 -40.978904 106.94314 -40.658203 106.76367 C -40.556394 106.7067 -40.455777 106.6415 -40.357422 106.56641 C -40.251129 106.49356 -40.155637 106.42019 -40.070312 106.3457 C -39.982137 106.27628 -39.906757 106.20955 -39.841797 106.14648 C -39.779682 106.07832 -39.733511 106.02092 -39.707031 105.97266 L -40.140625 105.43164 C -40.204374 105.52079 -40.302773 105.62695 -40.435547 105.74805 C -40.568321 105.86914 -40.727668 105.98249 -40.916016 106.08789 C -41.150178 106.2189 -41.368431 106.29531 -41.568359 106.32031 C -41.771136 106.34023 -41.960556 106.31745 -42.138672 106.25 C -42.311698 106.17971 -42.474393 106.0696 -42.625 105.91992 C -42.770517 105.7674 -42.903795 105.58489 -43.023438 105.37109 C -43.291209 104.89259 -43.389439 104.46974 -43.320312 104.10352 C -43.246096 103.73444 -43.010339 103.43899 -42.613281 103.2168 C -42.455476 103.12852 -42.299066 103.06007 -42.144531 103.01367 C -41.984906 102.96447 -41.838512 102.93667 -41.703125 102.92773 L -41.878906 102.23438 z M -46.488281 105.22461 C -46.961359 105.04816 -47.465499 105.1091 -48 105.4082 C -48.229071 105.5364 -48.429145 105.70504 -48.599609 105.91406 C -48.770073 106.1231 -48.891758 106.36183 -48.962891 106.62891 C -49.034024 106.89599 -49.04632 107.19004 -49 107.51172 C -48.956529 107.82831 -48.835228 108.16243 -48.638672 108.51367 C -48.470602 108.81401 -48.277382 109.06946 -48.058594 109.28125 C -47.837562 109.4851 -47.595525 109.63446 -47.330078 109.72656 C -47.064632 109.81863 -46.776052 109.84712 -46.466797 109.81445 C -46.1553 109.77383 -45.826621 109.6566 -45.480469 109.46289 C -45.205582 109.30906 -44.97633 109.14711 -44.791016 108.97656 C -44.600611 108.80316 -44.474962 108.67041 -44.414062 108.57617 L -44.845703 108.03516 C -44.909452 108.12431 -45.014671 108.24015 -45.162109 108.38281 C -45.307306 108.51754 -45.506425 108.65534 -45.755859 108.79492 C -46.198731 109.04276 -46.583757 109.11849 -46.912109 109.02148 C -47.240462 108.92448 -47.535592 108.67844 -47.796875 108.2832 L -45.078125 106.76172 C -45.095792 106.71811 -45.116938 106.67275 -45.142578 106.62695 L -45.210938 106.50391 C -45.592655 105.82178 -46.018053 105.39596 -46.488281 105.22461 z M -46.816406 105.94922 C -46.534446 106.05882 -46.305204 106.27409 -46.130859 106.59766 L -48.101562 107.70117 C -48.163201 107.55519 -48.208075 107.40213 -48.236328 107.24414 C -48.259495 107.0833 -48.256129 106.92953 -48.226562 106.7793 C -48.196997 106.62906 -48.138769 106.48883 -48.050781 106.35938 C -47.960551 106.22199 -47.832817 106.10678 -47.669922 106.01562 C -47.379764 105.85327 -47.096096 105.83167 -46.816406 105.94922 z M -19.689453 114.80273 L -20.503906 114.94141 L -20.503906 117.24414 C -20.603073 117.17997 -20.754818 117.11297 -20.958984 117.04297 C -21.157318 116.97297 -21.387891 116.9375 -21.650391 116.9375 C -21.977057 116.9375 -22.268724 116.99661 -22.525391 117.11328 C -22.776224 117.22995 -22.989063 117.39156 -23.164062 117.60156 C -23.339063 117.81156 -23.473073 118.0638 -23.566406 118.35547 C -23.653906 118.64714 -23.697266 118.96641 -23.697266 119.31641 C -23.697266 119.68391 -23.644063 120.01695 -23.539062 120.31445 C -23.428229 120.60612 -23.274505 120.85443 -23.076172 121.05859 C -22.877839 121.26276 -22.637422 121.42042 -22.357422 121.53125 C -22.077422 121.64208 -21.764063 121.69727 -21.414062 121.69727 C -21.034896 121.69727 -20.697917 121.67161 -20.40625 121.61914 C -20.114583 121.56661 -19.87612 121.5134 -19.689453 121.46094 L -19.689453 114.80273 z M 1.2832031 114.80273 L 0.46875 114.94141 L 0.46875 120.40234 C 0.46875 120.83401 0.57320313 121.1513 0.78320312 121.35547 C 0.99320311 121.55964 1.3498958 121.66802 1.8515625 121.67969 L 1.9648438 120.99805 C 1.8365104 120.98051 1.728125 120.95888 1.640625 120.93555 C 1.553125 120.90635 1.4841406 120.86692 1.4316406 120.81445 C 1.3791406 120.76195 1.3397396 120.69102 1.3164062 120.60352 C 1.2930729 120.51602 1.2832031 120.40565 1.2832031 120.27148 L 1.2832031 114.80273 z M -17.679688 115.15234 C -17.825521 115.15234 -17.951641 115.20161 -18.056641 115.30078 C -18.155807 115.39411 -18.205078 115.52221 -18.205078 115.68555 C -18.205078 115.84888 -18.155807 115.98091 -18.056641 116.08008 C -17.951641 116.17341 -17.825521 116.2207 -17.679688 116.2207 C -17.533854 116.2207 -17.411667 116.17341 -17.3125 116.08008 C -17.2075 115.98091 -17.154297 115.84888 -17.154297 115.68555 C -17.154297 115.52221 -17.2075 115.39411 -17.3125 115.30078 C -17.411667 115.20161 -17.533854 115.15234 -17.679688 115.15234 z M -6.8945312 115.15234 C -7.0403646 115.15234 -7.1645313 115.20161 -7.2695312 115.30078 C -7.3686979 115.39411 -7.4199219 115.52221 -7.4199219 115.68555 C -7.4199219 115.84888 -7.3686979 115.98091 -7.2695312 116.08008 C -7.1645312 116.17341 -7.0403646 116.2207 -6.8945312 116.2207 C -6.7486979 116.2207 -6.6265104 116.17341 -6.5273438 116.08008 C -6.4223438 115.98091 -6.3691406 115.84888 -6.3691406 115.68555 C -6.3691406 115.52221 -6.4223438 115.39411 -6.5273438 115.30078 C -6.6265104 115.20161 -6.7486979 115.15234 -6.8945312 115.15234 z M 3.4804688 115.15234 C 3.3346354 115.15234 3.2104687 115.20161 3.1054688 115.30078 C 3.0063021 115.39411 2.9570312 115.52221 2.9570312 115.68555 C 2.9570312 115.84888 3.0063021 115.98091 3.1054688 116.08008 C 3.2104687 116.17341 3.3346354 116.2207 3.4804688 116.2207 C 3.6263021 116.2207 3.7504427 116.17341 3.8496094 116.08008 C 3.9546094 115.98091 4.0058594 115.84888 4.0058594 115.68555 C 4.0058594 115.52221 3.9546094 115.39411 3.8496094 115.30078 C 3.7504427 115.20161 3.6263021 115.15234 3.4804688 115.15234 z M 15.890625 115.15234 C 15.744792 115.15234 15.618672 115.20161 15.513672 115.30078 C 15.414505 115.39411 15.365234 115.52221 15.365234 115.68555 C 15.365234 115.84888 15.414505 115.98091 15.513672 116.08008 C 15.618672 116.17341 15.744792 116.2207 15.890625 116.2207 C 16.036458 116.2207 16.158646 116.17341 16.257812 116.08008 C 16.362813 115.98091 16.416016 115.84888 16.416016 115.68555 C 16.416016 115.52221 16.362813 115.39411 16.257812 115.30078 C 16.158646 115.20161 16.036458 115.15234 15.890625 115.15234 z M -34.988281 115.63281 L -35.802734 115.77344 L -35.802734 119.83398 C -35.802734 120.13732 -35.779089 120.40534 -35.732422 120.63867 C -35.679922 120.86617 -35.593203 121.0593 -35.470703 121.2168 C -35.348203 121.3743 -35.186615 121.49255 -34.988281 121.57422 C -34.784115 121.65005 -34.527917 121.68945 -34.21875 121.68945 C -33.95625 121.68945 -33.723698 121.65593 -33.519531 121.5918 C -33.315365 121.5335 -33.17151 121.48423 -33.089844 121.44336 L -33.248047 120.76953 C -33.30638 120.79286 -33.410833 120.83424 -33.5625 120.89258 C -33.708333 120.94504 -33.903438 120.9707 -34.148438 120.9707 C -34.288437 120.9707 -34.410625 120.95297 -34.515625 120.91797 C -34.620625 120.88297 -34.709297 120.82581 -34.779297 120.74414 C -34.849297 120.65664 -34.900547 120.54036 -34.935547 120.39453 C -34.970547 120.24286 -34.988281 120.05172 -34.988281 119.82422 L -34.988281 117.72461 L -33.265625 117.72461 L -33.265625 117.04297 L -34.988281 117.04297 L -34.988281 115.63281 z M -30.294922 116.92773 C -30.557422 116.92773 -30.81362 116.97896 -31.064453 117.07812 C -31.315286 117.17729 -31.537969 117.3251 -31.730469 117.52344 C -31.922969 117.72177 -32.076693 117.97206 -32.193359 118.27539 C -32.310026 118.57289 -32.369141 118.92367 -32.369141 119.32617 C -32.369141 119.67034 -32.325781 119.98763 -32.238281 120.2793 C -32.144948 120.56513 -32.003073 120.81344 -31.816406 121.02344 C -31.62974 121.23344 -31.395208 121.39898 -31.109375 121.52148 C -30.817708 121.63815 -30.472839 121.69727 -30.076172 121.69727 C -29.761172 121.69727 -29.481328 121.66771 -29.236328 121.60938 C -28.985495 121.55101 -28.810104 121.49583 -28.710938 121.44336 L -28.824219 120.76172 C -28.923385 120.80842 -29.073151 120.85769 -29.271484 120.91016 C -29.463984 120.95682 -29.702448 120.98047 -29.988281 120.98047 C -30.495781 120.98047 -30.870208 120.85828 -31.109375 120.61328 C -31.348542 120.36828 -31.484531 120.00766 -31.519531 119.53516 L -28.404297 119.53516 C -28.398497 119.48846 -28.396484 119.43919 -28.396484 119.38672 L -28.396484 119.24805 C -28.396484 118.46638 -28.560052 117.88503 -28.886719 117.50586 C -29.213385 117.12086 -29.682422 116.92773 -30.294922 116.92773 z M -14.277344 116.92773 C -14.790677 116.92773 -15.196641 117.04794 -15.494141 117.28711 C -15.791641 117.52044 -15.941406 117.83773 -15.941406 118.24023 C -15.941406 118.4444 -15.905938 118.61781 -15.835938 118.75781 C -15.765938 118.89781 -15.671354 119.01607 -15.554688 119.11523 C -15.438021 119.2144 -15.302031 119.30307 -15.144531 119.37891 C -14.981198 119.44891 -14.811719 119.51789 -14.636719 119.58789 C -14.275052 119.73372 -14.014922 119.86576 -13.857422 119.98242 C -13.699922 120.09909 -13.621094 120.25674 -13.621094 120.45508 C -13.621094 120.64758 -13.703854 120.7875 -13.867188 120.875 C -14.024688 120.9625 -14.269062 121.00586 -14.601562 121.00586 C -14.939896 121.00586 -15.211849 120.97039 -15.416016 120.90039 C -15.620182 120.83039 -15.767995 120.77914 -15.861328 120.74414 L -16.009766 121.44336 C -15.928099 121.47839 -15.774375 121.52766 -15.546875 121.5918 C -15.319375 121.6618 -15.004062 121.69727 -14.601562 121.69727 C -14.024063 121.69727 -13.580651 121.58888 -13.271484 121.37305 C -12.956484 121.15721 -12.798828 120.83992 -12.798828 120.41992 C -12.798828 120.20409 -12.832318 120.02279 -12.896484 119.87695 C -12.960651 119.72529 -13.053281 119.59719 -13.175781 119.49219 C -13.292448 119.38719 -13.434349 119.29654 -13.603516 119.2207 C -13.772682 119.13904 -13.965807 119.05823 -14.181641 118.97656 C -14.344974 118.9182 -14.484896 118.86301 -14.601562 118.81055 C -14.718229 118.75805 -14.816771 118.70286 -14.898438 118.64453 C -14.974271 118.58036 -15.033385 118.50943 -15.074219 118.43359 C -15.109219 118.35776 -15.126953 118.27104 -15.126953 118.17188 C -15.126953 117.97938 -15.042214 117.83945 -14.873047 117.75195 C -14.70388 117.65862 -14.504844 117.61133 -14.277344 117.61133 C -14.014844 117.61133 -13.790182 117.63699 -13.603516 117.68945 C -13.416849 117.73612 -13.280859 117.78341 -13.193359 117.83008 L -13.044922 117.13086 C -13.091589 117.11333 -13.158594 117.09169 -13.246094 117.06836 C -13.32776 117.04503 -13.424323 117.02535 -13.535156 117.00781 C -13.64599 116.98448 -13.764245 116.96674 -13.892578 116.95508 C -14.020911 116.93754 -14.14901 116.92773 -14.277344 116.92773 z M -9.6386719 116.92773 C -9.971172 116.92773 -10.274661 116.99078 -10.548828 117.11328 C -10.817161 117.22995 -11.045755 117.39549 -11.232422 117.61133 C -11.419089 117.82133 -11.564922 118.07161 -11.669922 118.36328 C -11.769089 118.65495 -11.818359 118.97617 -11.818359 119.32617 C -11.818359 119.67617 -11.771068 119.9974 -11.677734 120.28906 C -11.584401 120.5749 -11.444479 120.8232 -11.257812 121.0332 C -11.065313 121.2432 -10.83276 121.40482 -10.558594 121.52148 C -10.278594 121.63815 -9.9534376 121.69727 -9.5859375 121.69727 C -9.4692708 121.69727 -9.3510156 121.68941 -9.2285156 121.67188 C -9.1001823 121.66021 -8.979974 121.64247 -8.8691406 121.61914 C -8.7583073 121.60161 -8.6597656 121.57997 -8.5722656 121.55664 C -8.4847656 121.52751 -8.4177604 121.4999 -8.3710938 121.4707 L -8.484375 120.78711 C -8.5835417 120.83374 -8.7195312 120.8771 -8.8945312 120.91797 C -9.0695312 120.95884 -9.2665885 120.98047 -9.4824219 120.98047 C -9.7507552 120.98047 -9.9773957 120.94107 -10.164062 120.86523 C -10.350729 120.78357 -10.504453 120.67122 -10.626953 120.52539 C -10.74362 120.37956 -10.832292 120.20417 -10.890625 120 C -10.943125 119.79583 -10.96875 119.57117 -10.96875 119.32617 C -10.96875 118.77784 -10.848542 118.36005 -10.609375 118.07422 C -10.364375 117.78839 -10.015547 117.64648 -9.5605469 117.64648 C -9.3797135 117.64648 -9.2102344 117.66422 -9.0527344 117.69922 C -8.889401 117.73422 -8.7475 117.77956 -8.625 117.83789 L -8.4394531 117.14648 C -8.6261198 117.07065 -8.8231771 117.01547 -9.0273438 116.98047 C -9.2315104 116.94547 -9.4345052 116.92773 -9.6386719 116.92773 z M 12.195312 116.92773 L 12.195312 116.92969 C 11.909479 116.92969 11.643437 116.95138 11.398438 116.99805 C 11.153438 117.03888 10.978047 117.08419 10.873047 117.13086 L 10.970703 117.80469 C 11.06987 117.76385 11.217682 117.72445 11.416016 117.68945 C 11.620182 117.64859 11.856667 117.62891 12.125 117.62891 C 12.335 117.62891 12.504479 117.66048 12.632812 117.72461 C 12.766979 117.78294 12.871432 117.8657 12.947266 117.9707 C 13.023099 118.06987 13.076302 118.18615 13.105469 118.32031 C 13.134635 118.44865 13.148438 118.57872 13.148438 118.71289 L 13.148438 118.94141 C 13.125104 118.93554 13.083724 118.92573 13.025391 118.91406 C 12.967057 118.9024 12.898073 118.89253 12.816406 118.88086 C 12.740573 118.86353 12.657813 118.8517 12.570312 118.8457 C 12.482813 118.83404 12.398073 118.82812 12.316406 118.82812 C 12.05974 118.82812 11.815365 118.85378 11.582031 118.90625 C 11.348698 118.95875 11.145703 119.03956 10.970703 119.15039 C 10.795703 119.26122 10.653828 119.40706 10.548828 119.58789 C 10.449661 119.76872 10.400391 119.98549 10.400391 120.23633 C 10.400391 120.49883 10.445703 120.72349 10.533203 120.91016 C 10.620703 121.09682 10.742891 121.24857 10.900391 121.36523 C 11.057891 121.4761 11.243151 121.55691 11.458984 121.60938 C 11.674818 121.66184 11.911302 121.68945 12.167969 121.68945 C 12.348802 121.68945 12.530104 121.67964 12.710938 121.66211 C 12.897604 121.65044 13.069062 121.63661 13.226562 121.61914 C 13.384062 121.60167 13.523984 121.58394 13.646484 121.56641 C 13.774818 121.54307 13.875312 121.52534 13.945312 121.51367 L 13.945312 118.66992 C 13.945312 118.41326 13.915755 118.1807 13.857422 117.9707 C 13.799089 117.75487 13.700547 117.56964 13.560547 117.41797 C 13.42638 117.26047 13.245078 117.14221 13.017578 117.06055 C 12.795911 116.97305 12.521979 116.92773 12.195312 116.92773 z M 23.3125 116.92773 C 23.05 116.92773 22.793802 116.97896 22.542969 117.07812 C 22.292135 117.17729 22.071406 117.3251 21.878906 117.52344 C 21.686406 117.72177 21.530729 117.97206 21.414062 118.27539 C 21.297396 118.57289 21.240234 118.92367 21.240234 119.32617 C 21.240234 119.67034 21.283594 119.98763 21.371094 120.2793 C 21.464427 120.56513 21.604349 120.81344 21.791016 121.02344 C 21.977682 121.23344 22.214167 121.39898 22.5 121.52148 C 22.791667 121.63815 23.134583 121.69727 23.53125 121.69727 C 23.84625 121.69727 24.126094 121.66771 24.371094 121.60938 C 24.621927 121.55101 24.797318 121.49583 24.896484 121.44336 L 24.783203 120.76172 C 24.684036 120.80842 24.536224 120.85769 24.337891 120.91016 C 24.145391 120.95682 23.904974 120.98047 23.619141 120.98047 C 23.111641 120.98047 22.739167 120.85828 22.5 120.61328 C 22.260833 120.36828 22.122891 120.00766 22.087891 119.53516 L 25.203125 119.53516 C 25.208925 119.48846 25.212891 119.43919 25.212891 119.38672 L 25.212891 119.24805 C 25.212891 118.46638 25.049323 117.88503 24.722656 117.50586 C 24.39599 117.12086 23.925 116.92773 23.3125 116.92773 z M 27.962891 116.92773 C 27.449557 116.92773 27.045547 117.04794 26.748047 117.28711 C 26.450547 117.52044 26.300781 117.83773 26.300781 118.24023 C 26.300781 118.4444 26.33625 118.61781 26.40625 118.75781 C 26.47625 118.89781 26.56888 119.01607 26.685547 119.11523 C 26.802214 119.2144 26.940156 119.30307 27.097656 119.37891 C 27.26099 119.44891 27.430469 119.51789 27.605469 119.58789 C 27.967135 119.73372 28.225313 119.86576 28.382812 119.98242 C 28.540312 120.09909 28.619141 120.25674 28.619141 120.45508 C 28.619141 120.64758 28.538333 120.7875 28.375 120.875 C 28.2175 120.9625 27.973125 121.00586 27.640625 121.00586 C 27.302292 121.00586 27.030339 120.97039 26.826172 120.90039 C 26.622005 120.83039 26.47224 120.77914 26.378906 120.74414 L 26.230469 121.44336 C 26.312135 121.47839 26.467813 121.52766 26.695312 121.5918 C 26.922812 121.6618 27.238125 121.69727 27.640625 121.69727 C 28.218125 121.69727 28.659583 121.58888 28.96875 121.37305 C 29.28375 121.15721 29.441406 120.83992 29.441406 120.41992 C 29.441406 120.20409 29.40987 120.02279 29.345703 119.87695 C 29.281536 119.72529 29.188906 119.59719 29.066406 119.49219 C 28.94974 119.38719 28.805885 119.29654 28.636719 119.2207 C 28.467552 119.13904 28.27638 119.05823 28.060547 118.97656 C 27.897214 118.9182 27.757292 118.86301 27.640625 118.81055 C 27.523958 118.75805 27.423464 118.70286 27.341797 118.64453 C 27.265964 118.58036 27.208802 118.50943 27.167969 118.43359 C 27.132969 118.35776 27.115234 118.27104 27.115234 118.17188 C 27.115234 117.97938 27.199974 117.83945 27.369141 117.75195 C 27.538307 117.65862 27.735391 117.61133 27.962891 117.61133 C 28.225391 117.61133 28.450052 117.63699 28.636719 117.68945 C 28.823385 117.73612 28.961328 117.78341 29.048828 117.83008 L 29.197266 117.13086 C 29.150599 117.11333 29.083594 117.09169 28.996094 117.06836 C 28.914427 117.04503 28.817865 117.02535 28.707031 117.00781 C 28.596198 116.98448 28.47599 116.96674 28.347656 116.95508 C 28.219323 116.93754 28.091224 116.92773 27.962891 116.92773 z M -39.164062 116.94531 C -39.566562 116.94531 -39.921302 116.97286 -40.230469 117.02539 C -40.539635 117.07789 -40.787943 117.12716 -40.974609 117.17383 L -40.974609 121.5918 L -40.160156 121.5918 L -40.160156 117.75195 C -40.13099 117.74609 -40.085651 117.73628 -40.021484 117.72461 C -39.951484 117.71314 -39.874635 117.70522 -39.792969 117.69922 C -39.705469 117.68769 -39.614818 117.67788 -39.521484 117.67188 C -39.428151 117.66587 -39.3375 117.66406 -39.25 117.66406 C -39.034167 117.66406 -38.854818 117.69362 -38.708984 117.75195 C -38.563151 117.80445 -38.444922 117.89117 -38.357422 118.01367 C -38.269922 118.13617 -38.208828 118.29581 -38.173828 118.49414 C -38.132995 118.69247 -38.113281 118.93289 -38.113281 119.21289 L -38.113281 121.5918 L -37.298828 121.5918 L -37.298828 119.03711 C -37.298828 118.72794 -37.328385 118.44612 -37.386719 118.18945 C -37.445052 117.93279 -37.547526 117.71404 -37.693359 117.5332 C -37.833359 117.34654 -38.022552 117.20268 -38.261719 117.10352 C -38.500885 116.99852 -38.802396 116.94531 -39.164062 116.94531 z M -25.347656 116.94531 C -25.70349 116.94531 -26.024714 116.97877 -26.310547 117.04297 C -26.59638 117.1013 -26.834844 117.16437 -27.027344 117.23438 L -27.027344 121.5918 L -26.212891 121.5918 L -26.212891 117.76953 C -26.166224 117.75786 -26.069661 117.73623 -25.923828 117.70703 C -25.772161 117.67203 -25.620417 117.6543 -25.46875 117.6543 C -25.235417 117.6543 -25.046224 117.67203 -24.900391 117.70703 C -24.748724 117.73616 -24.642292 117.76378 -24.578125 117.78711 L -24.4375 117.07812 C -24.4725 117.06646 -24.527682 117.05464 -24.603516 117.04297 C -24.673516 117.02544 -24.752344 117.00971 -24.839844 116.99805 C -24.927344 116.98071 -25.017995 116.96889 -25.111328 116.96289 C -25.198828 116.95122 -25.277656 116.94531 -25.347656 116.94531 z M -3.1503906 116.94531 C -3.5295573 116.94531 -3.8665365 116.97487 -4.1582031 117.0332 C -4.4440365 117.0857 -4.6825 117.13497 -4.875 117.18164 L -4.875 123.21094 L -4.0605469 123.21094 L -4.0605469 121.39062 C -3.9613802 121.45479 -3.8135677 121.5218 -3.6152344 121.5918 C -3.4110677 121.6618 -3.1765625 121.69727 -2.9140625 121.69727 C -2.5873958 121.69727 -2.2996615 121.63815 -2.0488281 121.52148 C -1.7921615 121.40482 -1.5753906 121.2432 -1.4003906 121.0332 C -1.2253906 120.8232 -1.0953125 120.57096 -1.0078125 120.2793 C -0.91447913 119.98763 -0.8671875 119.67034 -0.8671875 119.32617 C -0.8671875 118.95867 -0.92236976 118.62956 -1.0332031 118.33789 C -1.1382031 118.04039 -1.2899479 117.78815 -1.4882812 117.58398 C -1.6866146 117.37982 -1.9270312 117.22411 -2.2070312 117.11328 C -2.4870313 117.00245 -2.8003906 116.94531 -3.1503906 116.94531 z M 7.3125 116.94531 C 6.91 116.94531 6.5533073 116.97286 6.2441406 117.02539 C 5.934974 117.07789 5.6866667 117.12716 5.5 117.17383 L 5.5 121.5918 L 6.3144531 121.5918 L 6.3144531 117.75195 C 6.3436198 117.74609 6.3909115 117.73628 6.4550781 117.72461 C 6.5250781 117.71314 6.599974 117.70522 6.6816406 117.69922 C 6.7691406 117.68769 6.8597917 117.67788 6.953125 117.67188 C 7.0464583 117.66587 7.1371094 117.66406 7.2246094 117.66406 C 7.4404427 117.66406 7.6217448 117.69362 7.7675781 117.75195 C 7.9134115 117.80445 8.0296875 117.89117 8.1171875 118.01367 C 8.2046875 118.13617 8.2657812 118.29581 8.3007812 118.49414 C 8.3416146 118.69247 8.3613281 118.93289 8.3613281 119.21289 L 8.3613281 121.5918 L 9.1757812 121.5918 L 9.1757812 119.03711 C 9.1757813 118.72794 9.146224 118.44612 9.0878906 118.18945 C 9.0295573 117.93279 8.9270833 117.71404 8.78125 117.5332 C 8.64125 117.34654 8.4520573 117.20268 8.2128906 117.10352 C 7.973724 116.99852 7.6741667 116.94531 7.3125 116.94531 z M 19.589844 116.94531 C 19.23401 116.94531 18.912786 116.97877 18.626953 117.04297 C 18.34112 117.1013 18.102656 117.16438 17.910156 117.23438 L 17.910156 121.5918 L 18.722656 121.5918 L 18.722656 117.76953 C 18.769323 117.75786 18.865885 117.73623 19.011719 117.70703 C 19.163385 117.67203 19.31513 117.6543 19.466797 117.6543 C 19.70013 117.6543 19.889323 117.67203 20.035156 117.70703 C 20.186823 117.73616 20.295208 117.76378 20.359375 117.78711 L 20.5 117.07812 C 20.465 117.06646 20.409818 117.05464 20.333984 117.04297 C 20.263984 117.02544 20.185156 117.00971 20.097656 116.99805 C 20.010156 116.98071 19.919505 116.96889 19.826172 116.96289 C 19.738672 116.95122 19.659844 116.94531 19.589844 116.94531 z M -18.082031 117.04297 L -18.082031 121.5918 L -17.267578 121.5918 L -17.267578 117.04297 L -18.082031 117.04297 z M -7.296875 117.04297 L -7.296875 121.5918 L -6.4824219 121.5918 L -6.4824219 117.04297 L -7.296875 117.04297 z M 3.078125 117.04297 L 3.078125 121.5918 L 3.8925781 121.5918 L 3.8925781 117.04297 L 3.078125 117.04297 z M 15.488281 117.04297 L 15.488281 121.5918 L 16.300781 121.5918 L 16.300781 117.04297 L 15.488281 117.04297 z M -30.302734 117.61914 C -29.970234 117.61914 -29.712057 117.73935 -29.525391 117.97852 C -29.332924 118.21185 -29.238341 118.51141 -29.244141 118.87891 L -31.501953 118.87891 C -31.484453 118.72141 -31.448984 118.56768 -31.396484 118.41602 C -31.338151 118.26435 -31.259323 118.13034 -31.160156 118.01367 C -31.06099 117.89701 -30.942734 117.80438 -30.802734 117.73438 C -30.656901 117.65854 -30.489401 117.61914 -30.302734 117.61914 z M 23.304688 117.61914 C 23.637187 117.61914 23.897318 117.73935 24.083984 117.97852 C 24.276451 118.21185 24.369081 118.51141 24.363281 118.87891 L 22.105469 118.87891 C 22.122969 118.72141 22.158437 118.56768 22.210938 118.41602 C 22.269271 118.26435 22.348099 118.13034 22.447266 118.01367 C 22.546432 117.89701 22.666641 117.80438 22.806641 117.73438 C 22.952474 117.65854 23.118021 117.61914 23.304688 117.61914 z M -21.544922 117.6543 C -21.323255 117.6543 -21.118307 117.6937 -20.931641 117.76953 C -20.744974 117.84536 -20.603073 117.92224 -20.503906 118.00391 L -20.503906 120.88281 C -20.585573 120.90615 -20.701849 120.92979 -20.853516 120.95312 C -20.999349 120.97066 -21.18263 120.98047 -21.404297 120.98047 C -21.841797 120.98047 -22.192578 120.83661 -22.455078 120.55078 C -22.717578 120.25911 -22.847656 119.84724 -22.847656 119.31641 C -22.847656 119.08307 -22.825964 118.86432 -22.779297 118.66016 C -22.73263 118.45599 -22.655781 118.28255 -22.550781 118.13672 C -22.445781 117.98505 -22.311771 117.86682 -22.148438 117.78516 C -21.979271 117.69766 -21.778255 117.6543 -21.544922 117.6543 z M -3.1601562 117.67188 C -2.7226562 117.67188 -2.371875 117.81573 -2.109375 118.10156 C -1.846875 118.3874 -1.7167969 118.79534 -1.7167969 119.32617 C -1.7167969 119.55951 -1.7404427 119.77826 -1.7871094 119.98242 C -1.833776 120.18076 -1.9086719 120.35615 -2.0136719 120.50781 C -2.1186719 120.65365 -2.2566146 120.76992 -2.4257812 120.85742 C -2.5891146 120.93909 -2.7861979 120.98047 -3.0195312 120.98047 C -3.2411979 120.98047 -3.4461458 120.94302 -3.6328125 120.86719 C -3.8194792 120.79135 -3.9613802 120.71253 -4.0605469 120.63086 L -4.0605469 117.75977 C -3.9788802 117.73637 -3.8724479 117.71669 -3.7382812 117.69922 C -3.5982812 117.68169 -3.4051563 117.67188 -3.1601562 117.67188 z M 12.386719 119.48242 C 12.573385 119.48242 12.731042 119.49424 12.859375 119.51758 C 12.993542 119.53504 13.090104 119.55869 13.148438 119.58789 L 13.148438 120.94531 C 13.049271 120.96865 12.923151 120.98638 12.771484 120.99805 C 12.625651 121.00405 12.458125 121.00586 12.265625 121.00586 C 11.944792 121.00586 11.690573 120.95068 11.503906 120.83984 C 11.31724 120.72318 11.222656 120.51823 11.222656 120.22656 C 11.222656 120.06906 11.262057 119.9449 11.337891 119.85156 C 11.413724 119.75236 11.506354 119.67551 11.617188 119.62305 C 11.733854 119.56468 11.859974 119.52723 11.994141 119.50977 C 12.134141 119.49223 12.264219 119.48242 12.386719 119.48242 z "
         inkscape:radius="0.12089392"
         sodipodi:type="inkscape:offset" />
    </g>
    <circle
       r="3.5146501"
       cy="35.870071"
       cx="85.896378"
       id="path4212"
       style="opacity:1;fill:#779b9b;fill-opacity:1;stroke:none;stroke-width:5;stroke-miterlimit:4;stroke-dasharray:none;stroke-dashoffset:0;stroke-opacity:1" />
    <path
       sodipodi:nodetypes="cczcczc"
       inkscape:connector-curvature="0"
       id="path4220"
       d="M 40.908224,39.154252 36.298846,43.76363 C 30.3188,36.148179 14.040485,36.878166 13.850775,49.778572 c -0.18971,12.900406 15.073068,16.405197 22.563306,7.697955 l 4.724612,4.724612 C 29.598316,74.369478 7.8359414,67.885395 7.8359414,50.101524 c 0,-17.783871 23.6203196,-23.277879 33.0722826,-10.947272 z"
       style="fill:#405982;fill-rule:evenodd;stroke:none;stroke-width:1px;stroke-linecap:butt;stroke-linejoin:miter;stroke-opacity:1;fill-opacity:1" />
    <path
       sodipodi:nodetypes="cccccc"
       inkscape:connector-curvature="0"
       id="path4222"
       d="m 82.623089,49.525351 0,34.455095 1.958985,0 4.587585,-7.915053 0,-26.655276 z"
       style="fill:#405982;fill-rule:evenodd;stroke:none;stroke-width:0.1;stroke-linecap:butt;stroke-linejoin:miter;stroke-miterlimit:4;stroke-dasharray:none;stroke-opacity:1;fill-opacity:1" />
    <path
       d="m 50.415065,67.617157 0,7.202152 c 3.401349,0 7.886799,0.762892 7.886799,-3.411123 0,-4.174015 -4.04426,-3.673188 -7.886799,-3.791029 z m -6.354497,-6.22266 0,34.444126 6.354497,0 0,-14.796655 0.864258,0 7.580395,14.796655 7.284847,0 L 57.667966,80.44541 C 65.653708,79.371295 68.689553,61.571423 53.749995,61.394498 Z"
       style="fill:#405982;fill-rule:evenodd;stroke:none;stroke-width:0.1;stroke-linecap:butt;stroke-linejoin:miter;stroke-miterlimit:4;stroke-dasharray:none;stroke-opacity:1;fill-opacity:1"
       id="path4226" />
  </g>
  <text
     sodipodi:linespacing="125%"
     id="text4230"
     y="52.290977"
     x="129.8692"
     style="font-style:normal;font-variant:normal;font-weight:normal;font-stretch:normal;font-size:40px;line-height:125%;font-family:'Noto Sans Mono CJK JP';-inkscape-font-specification:'Noto Sans Mono CJK JP';letter-spacing:0px;word-spacing:0px;fill:#779b9b;fill-opacity:1;stroke:none;stroke-width:1px;stroke-linecap:butt;stroke-linejoin:miter;stroke-opacity:1"
     xml:space="preserve"><tspan
       style="font-style:normal;font-variant:normal;font-weight:normal;font-stretch:normal;font-size:8.75px;font-family:Ubuntu;-inkscape-font-specification:Ubuntu;fill:#779b9b;fill-opacity:1"
       y="52.290977"
       x="129.8692"
       id="tspan4232"
       sodipodi:role="line">entre</tspan></text>
  <text
     transform="matrix(0,-1,1,0,0,0)"
     xml:space="preserve"
     style="font-style:normal;font-variant:normal;font-weight:normal;font-stretch:normal;font-size:40px;line-height:125%;font-family:'Noto Sans Mono CJK JP';-inkscape-font-specification:'Noto Sans Mono CJK JP';letter-spacing:0px;word-spacing:0px;fill:#779b9b;fill-opacity:1;stroke:none;stroke-width:1px;stroke-linecap:butt;stroke-linejoin:miter;stroke-opacity:1"
     x="-95.882904"
     y="136.24181"
     id="text4234"
     sodipodi:linespacing="125%"><tspan
       sodipodi:role="line"
       id="tspan4236"
       x="-95.882904"
       y="136.24181"
       style="font-style:normal;font-variant:normal;font-weight:normal;font-stretch:normal;font-size:8.75px;font-family:Ubuntu;-inkscape-font-specification:Ubuntu;letter-spacing:0.69999999px;fill:#779b9b;fill-opacity:1">echerches</tspan></text>
  <text
     transform="matrix(0.48833786,-0.87265465,0.87265465,0.48833786,0,0)"
     inkscape:transform-center-y="-28.970185"
     inkscape:transform-center-x="-16.952105"
     sodipodi:linespacing="125%"
     id="text4238"
     y="164.43088"
     x="-17.701899"
     style="font-style:normal;font-variant:normal;font-weight:normal;font-stretch:normal;font-size:40px;line-height:125%;font-family:'Noto Sans Mono CJK JP';-inkscape-font-specification:'Noto Sans Mono CJK JP';letter-spacing:0px;word-spacing:0px;fill:#779b9b;fill-opacity:1;stroke:none;stroke-width:1px;stroke-linecap:butt;stroke-linejoin:miter;stroke-opacity:1"
     xml:space="preserve"><tspan
       style="font-style:normal;font-variant:normal;font-weight:normal;font-stretch:normal;font-size:8.75px;font-family:Ubuntu;-inkscape-font-specification:Ubuntu;letter-spacing:0.2px;fill:#779b9b;fill-opacity:1"
       y="164.43088"
       x="-17.701899"
       id="tspan4240"
       sodipodi:role="line">nterdisciplinaires</tspan></text>
</svg>
