<svg xmlns:rdf="http://www.w3.org/1999/02/22-rdf-syntax-ns#" xmlns="http://www.w3.org/2000/svg" viewBox="0 0 400 115" version="1.1" xmlns:cc="http://creativecommons.org/ns#" xmlns:dc="http://purl.org/dc/elements/1.1/">
 <defs>
  <clipPath id="k" clipPathUnits="userSpaceOnUse">
   <path d="m219.69 769.4h107.43v35.782h-107.43v-35.782z"/>
  </clipPath>
  <clipPath id="j" clipPathUnits="userSpaceOnUse">
   <path d="m219.69 774.84h107.43v30.34h-107.43v-30.34z"/>
  </clipPath>
  <clipPath id="i" clipPathUnits="userSpaceOnUse">
   <path d="m219.69 769.4h107.43v35.782h-107.43v-35.782z"/>
  </clipPath>
  <clipPath id="h" clipPathUnits="userSpaceOnUse">
   <path d="m219.69 774.84h107.43v30.34h-107.43v-30.34z"/>
  </clipPath>
  <clipPath id="g" clipPathUnits="userSpaceOnUse">
   <path d="m219.69 769.4h107.43v35.782h-107.43v-35.782z"/>
  </clipPath>
  <clipPath id="f" clipPathUnits="userSpaceOnUse">
   <path d="m219.69 774.84h107.43v30.34h-107.43v-30.34z"/>
  </clipPath>
  <clipPath id="e" clipPathUnits="userSpaceOnUse">
   <path d="m219.69 769.4h107.43v35.782h-107.43v-35.782z"/>
  </clipPath>
  <clipPath id="d" clipPathUnits="userSpaceOnUse">
   <path d="m219.69 774.84h107.43v30.34h-107.43v-30.34z"/>
  </clipPath>
  <clipPath id="c" clipPathUnits="userSpaceOnUse">
   <path d="m219.69 769.4h107.43v35.782h-107.43v-35.782z"/>
  </clipPath>
  <clipPath id="b" clipPathUnits="userSpaceOnUse">
   <path d="m219.69 774.84h107.43v30.34h-107.43v-30.34z"/>
  </clipPath>
  <clipPath id="a" clipPathUnits="userSpaceOnUse">
   <path d="m219.69 769.4h107.43v35.782h-107.43v-35.782z"/>
  </clipPath>
 </defs>
 <g transform="matrix(3.7233 0 0 -3.7233 -817.95 2998.9)">
  <g clip-path="url(#k)">
   <g transform="translate(234.39 775.19)">
    <path d="m0 0c8.184-0.256 15.026 6.17 15.28 14.354 0.258 8.184-6.175 15.025-14.359 15.28-8.182 0.253-15.02-6.175-15.275-14.354-0.259-8.187 6.169-15.032 14.354-15.28" fill="#f59c00"/>
   </g>
  </g>
  <g clip-path="url(#j)">
   <g transform="translate(234.39 775.19)">
    <path d="m0 0c8.184-0.256 15.026 6.17 15.28 14.354 0.258 8.184-6.175 15.025-14.359 15.28-8.182 0.253-15.02-6.175-15.275-14.354-0.259-8.187 6.169-15.032 14.354-15.28z" stroke="#fff" stroke-width=".69" fill="none"/>
   </g>
  </g>
  <g clip-path="url(#i)">
   <g transform="translate(233.64 775.23)">
    <path d="m0 0c-2.076 0.17-4.021 0.764-5.761 1.69 0.218 3.481 2.428 6.392 5.479 7.64-0.182-1.058-0.295-2.147-0.329-3.252-0.066-2.093 0.147-4.133 0.611-6.078" fill="#c8d300"/>
   </g>
  </g>
  <g clip-path="url(#h)">
   <g transform="translate(233.64 775.23)">
    <path d="m0 0c-2.076 0.17-4.021 0.764-5.761 1.69 0.218 3.481 2.428 6.392 5.479 7.64-0.182-1.058-0.295-2.147-0.329-3.252-0.066-2.093 0.147-4.133 0.611-6.078z" stroke="#fff" stroke-width=".69" fill="none"/>
   </g>
  </g>
  <g clip-path="url(#g)">
   <g transform="translate(221.08 784.52)">
    <path d="m0 0c-0.734 1.834-1.112 3.846-1.046 5.95 0.064 1.941 0.499 3.787 1.231 5.472 1.415-1.501 3.074-2.767 4.918-3.737-0.37-3.321-2.341-6.137-5.103-7.685" fill="#4bb166"/>
   </g>
  </g>
  <g clip-path="url(#f)">
   <g transform="translate(221.08 784.52)">
    <path d="m0 0c-0.734 1.834-1.112 3.846-1.046 5.95 0.064 1.941 0.499 3.787 1.231 5.472 1.415-1.501 3.074-2.767 4.918-3.737-0.37-3.321-2.341-6.137-5.103-7.685z" stroke="#fff" stroke-width=".69" fill="none"/>
   </g>
  </g>
  <g clip-path="url(#e)">
   <g transform="translate(235.03 790.05)">
    <path d="m0 0c-0.222 0-0.445-0.002-0.667 0.007-2.954 0.093-5.728 0.86-8.175 2.149 0.03 0.265 0.049 0.537 0.061 0.812 0.083 2.62-0.845 5.037-2.43 6.885 2.818 3.138 6.948 5.063 11.495 4.923 3.725-0.116 7.081-1.6 9.609-3.943-4.345-2.438-7.839-6.234-9.893-10.833" fill="#2581c4"/>
   </g>
  </g>
  <g clip-path="url(#d)">
   <g transform="translate(235.03 790.05)">
    <path d="m0 0c-0.222 0-0.445-0.002-0.667 0.007-2.954 0.093-5.728 0.86-8.175 2.149 0.03 0.265 0.049 0.537 0.061 0.812 0.083 2.62-0.845 5.037-2.43 6.885 2.818 3.138 6.948 5.063 11.495 4.923 3.725-0.116 7.081-1.6 9.609-3.943-4.345-2.438-7.839-6.234-9.893-10.833z" stroke="#fff" stroke-width=".69" fill="none"/>
   </g>
  </g>
  <g clip-path="url(#c)">
   <g transform="translate(226.19 792.21)">
    <path d="m0 0c-1.844 0.97-3.503 2.237-4.918 3.737 0.639 1.456 1.505 2.791 2.549 3.96 1.586-1.849 2.514-4.265 2.431-6.885-0.012-0.275-0.031-0.547-0.062-0.812" fill="#f088b6"/>
   </g>
   <g transform="translate(226.19 792.21)">
    <path d="m0 0c-1.844 0.97-3.503 2.237-4.918 3.737 0.639 1.456 1.505 2.791 2.549 3.96 1.586-1.849 2.514-4.265 2.431-6.885-0.012-0.275-0.031-0.547-0.062-0.812z" stroke="#fff" stroke-width=".69" fill="none"/>
   </g>
   <g transform="translate(245.07 779.27)">
    <path d="m0 0c-1.169 3.366-4.315 5.832-8.085 5.948-1.285 0.04-2.511-0.197-3.628-0.656 0.334 1.927 0.899 3.764 1.669 5.489 5.268 0.021 10.053 2.215 13.467 5.758 0.821-1.917 1.242-4.038 1.176-6.262-0.126-4.059-1.875-7.683-4.599-10.277" fill="#4cb4e7"/>
   </g>
   <g transform="translate(245.07 779.27)">
    <path d="m0 0c-1.169 3.366-4.315 5.832-8.085 5.948-1.285 0.04-2.511-0.197-3.628-0.656 0.334 1.927 0.899 3.764 1.669 5.489 5.268 0.021 10.053 2.215 13.467 5.758 0.821-1.917 1.242-4.038 1.176-6.262-0.126-4.059-1.875-7.683-4.599-10.277z" stroke="#fff" stroke-width=".69" fill="none"/>
   </g>
   <g transform="translate(245.07 779.27)">
    <path d="m0 0c-2.771-2.634-6.553-4.208-10.681-4.078-0.249 0.007-0.502 0.019-0.75 0.041-0.465 1.945-0.677 3.985-0.611 6.077 0.033 1.106 0.146 2.194 0.329 3.252 1.117 0.459 2.343 0.696 3.628 0.656 3.77-0.116 6.916-2.582 8.085-5.948" fill="#9b99cb"/>
   </g>
  </g>
  <g clip-path="url(#b)">
   <g transform="translate(245.07 779.27)">
    <path d="m0 0c-2.771-2.634-6.553-4.208-10.681-4.078-0.249 0.007-0.502 0.019-0.75 0.041-0.465 1.945-0.677 3.985-0.611 6.077 0.033 1.106 0.146 2.194 0.329 3.252 1.117 0.459 2.343 0.696 3.628 0.656 3.77-0.116 6.916-2.582 8.085-5.948z" stroke="#fff" stroke-width=".69" fill="none"/>
   </g>
  </g>
  <g clip-path="url(#a)">
   <g transform="translate(235.03 790.05)">
    <path d="m0 0c2.054 4.599 5.548 8.395 9.893 10.833 1.529-1.416 2.752-3.141 3.574-5.074-3.413-3.544-8.198-5.738-13.467-5.759" fill="#c82285"/>
   </g>
   <g transform="translate(235.03 790.05)">
    <path d="m0 0c2.054 4.599 5.548 8.395 9.893 10.833 1.529-1.416 2.752-3.141 3.574-5.074-3.413-3.544-8.198-5.738-13.467-5.759z" stroke="#fff" stroke-width=".69" fill="none"/>
   </g>
   <g transform="translate(232.09 793.76)">
    <path d="m0 0c1.936-0.057 3.548 1.458 3.612 3.394 0.057 1.929-1.46 3.546-3.389 3.605-1.934 0.061-3.548-1.458-3.607-3.392-0.062-1.929 1.453-3.543 3.384-3.607" fill="#fcea10"/>
   </g>
   <g transform="translate(232.09 793.76)">
    <path d="m0 0c1.936-0.057 3.548 1.458 3.612 3.394 0.057 1.929-1.46 3.546-3.389 3.605-1.934 0.061-3.548-1.458-3.607-3.392-0.062-1.929 1.453-3.543 3.384-3.607z" stroke="#fff" stroke-width=".69" fill="none"/>
   </g>
   <g transform="translate(255.56 803.1)">
    <path d="m0 0c0 0.91-0.027 0.91-0.873 1.047v0.202h4.401l0.028-1.359h-0.258c0 0.735-0.395 0.928-0.992 0.928h-0.716c-0.46 0-0.579-0.037-0.579-0.478v-1.828h1.111c0.644 0 0.699 0.404 0.754 0.707h0.257v-1.929h-0.257c0 0.496-0.202 0.79-0.754 0.79h-1.111v-3.014h-1.011v4.934z" fill="#7c7674"/>
   </g>
   <g transform="translate(263.93 798.49)">
    <path d="m0 0c1.424 0 1.479 1.562 1.479 2.738 0 1.203-0.083 2.784-1.479 2.784-1.424 0-1.534-1.544-1.534-2.784 0-1.139 0.138-2.738 1.534-2.738m0 5.953c1.911 0 2.49-1.24 2.49-3.215 0-1.948-0.579-3.17-2.49-3.17-1.938 0-2.545 1.204-2.545 3.17 0 1.975 0.551 3.215 2.545 3.215z" fill="#7c7674"/>
   </g>
   <g transform="translate(269.12 803.17)">
    <path d="m0 0c0 0.854-0.129 0.818-0.919 0.974v0.202h1.939l2.894-4.998h0.018v4.998h0.579v-6.183h-0.882l-3.041 5.227-0.009-5.227h-0.579z" fill="#7c7674"/>
   </g>
   <g transform="translate(277.61 799.2)">
    <path d="m0 0c0-0.359 0-0.607 0.634-0.607 1.672 0 2.039 0.8 2.039 2.656 0 1.626-0.192 2.664-1.92 2.664-0.533 0-0.753-0.064-0.753-0.496v-4.217zm-1.011 3.895c0 0.91-0.027 0.91-0.872 1.048v0.202h2.544c1.746 0 3.023-0.478 3.023-3.078 0-2.903-1.534-3.105-3.326-3.105h-1.369v4.933z" fill="#7c7674"/>
   </g>
   <g transform="translate(284.51 800.51)">
    <path d="m0 0h2.03l-1.047 2.683-0.983-2.683zm0.413 2.664c0.056 0.157 0.157 0.478 0.157 0.542 0 0.368-0.34 0.377-0.708 0.432v0.202h1.727l2.242-6.183h-0.955l-0.69 1.911h-2.342l-0.689-1.911h-0.57l1.828 5.007z" fill="#7c7674"/>
   </g>
   <g transform="translate(291.72 803.91)">
    <path d="m0 0h-0.634c-0.726 0-0.937-0.23-0.992-0.9h-0.258l0.037 1.332h4.704l0.037-1.36h-0.257c0 0.708-0.294 0.928-1.002 0.928h-0.625v-5.751h-1.01v5.751z" fill="#7c7674"/>
   </g>
   <g transform="translate(296.89 803.13)">
    <path d="m0 0c0 0.772-0.028 0.781-0.919 0.9v0.202l1.929 0.212v-6.284h-1.01v4.97z" fill="#7c7674"/>
   </g>
   <g transform="translate(303.13 798.49)">
    <path d="m1.479 2.738c0 1.203-0.083 2.784-1.479 2.784-1.424 0-1.534-1.544-1.534-2.784 0-1.139 0.138-2.738 1.534-2.738 1.424 0 1.479 1.562 1.479 2.738zm-1.479 3.215c1.911 0 2.49-1.24 2.49-3.215 0-1.948-0.579-3.17-2.49-3.17-1.938 0-2.545 1.204-2.545 3.17 0 1.975 0.552 3.215 2.545 3.215z" fill="#7c7674"/>
   </g>
   <g transform="translate(308.32 803.17)">
    <path d="m0 0c0 0.854-0.128 0.818-0.919 0.974v0.202h1.939l2.894-4.998h0.018v4.998h0.579v-6.183h-0.882l-3.032 5.227h-0.018v-5.227h-0.579v5.007z" fill="#7c7674"/>
   </g>
   <g transform="translate(256.58 787.63)">
    <path d="m0 0c0-0.377 0.377-0.377 0.882-0.377 1.01 0 1.442 0.45 1.442 1.387 0 0.91-0.679 1.232-1.488 1.232h-0.836v-2.242zm0 2.674h0.616c0.79 0 1.396 0.257 1.396 1.166 0 0.827-0.469 1.103-1.305 1.103-0.551 0-0.707-0.028-0.707-0.478v-1.791zm-1.011 1.451c0 0.91-0.018 0.91-0.872 1.047v0.203h2.728c1.057 0 2.178-0.249 2.178-1.489 0-0.9-0.653-1.249-1.103-1.396v-0.019c0.652-0.128 1.415-0.468 1.415-1.635 0-1.645-1.865-1.645-2.618-1.645h-1.728v4.934z" fill="#7c7674"/>
   </g>
   <g transform="translate(262.53 791.76)">
    <path d="m0 0c0 0.91-0.028 0.91-0.873 1.047v0.203h4.401l0.027-1.36h-0.257c0 0.735-0.386 0.928-0.992 0.928h-0.717c-0.459 0-0.579-0.037-0.579-0.478v-1.828h1.112c0.634 0 0.698 0.404 0.754 0.707h0.257v-1.929h-0.257c0 0.496-0.203 0.79-0.754 0.79h-1.112v-2.049c0-0.515 0.12-0.533 0.579-0.533h1.02c0.524 0 0.772 0.184 0.827 0.901h0.257l-0.027-1.333h-3.666v4.934z" fill="#7c7674"/>
   </g>
   <g transform="translate(269.96 792.58)">
    <path d="m0 0h-0.634c-0.726 0-0.937-0.23-0.992-0.9h-0.257l0.036 1.332h4.704l0.037-1.36h-0.257c0 0.707-0.294 0.928-1.002 0.928h-0.624v-5.751h-1.011v5.751z" fill="#7c7674"/>
   </g>
   <g transform="translate(276.12 792.58)">
    <path d="m0 0h-0.634c-0.726 0-0.937-0.23-0.992-0.9h-0.257l0.036 1.332h4.704l0.037-1.36h-0.257c0 0.707-0.294 0.928-1.002 0.928h-0.624v-5.751h-1.011v5.751z" fill="#7c7674"/>
   </g>
   <g transform="translate(281.2 791.76)">
    <path d="m0 0c0 0.91-0.027 0.91-0.873 1.047v0.203h4.401l0.028-1.36h-0.258c0 0.735-0.386 0.928-0.992 0.928h-0.717c-0.459 0-0.578-0.037-0.578-0.478v-1.828h1.111c0.634 0 0.699 0.404 0.754 0.707h0.257v-1.929h-0.257c0 0.496-0.202 0.79-0.754 0.79h-1.111v-2.049c0-0.515 0.119-0.533 0.578-0.533h1.02c0.524 0 0.772 0.184 0.827 0.901h0.257l-0.027-1.333h-3.666v4.934z" fill="#7c7674"/>
   </g>
   <g transform="translate(287.58 791.83)">
    <path d="m0 0c0 0.854-0.128 0.818-0.919 0.974v0.202h1.939l2.894-4.998h0.018v4.998h0.579v-6.183h-0.882l-3.032 5.228h-0.018v-5.228h-0.579v5.007z" fill="#7c7674"/>
   </g>
   <g transform="translate(299.2 787.06)">
    <path d="m0 0c-0.229-0.092-0.974-0.34-1.883-0.34-1.884 0-2.609 1.204-2.609 3.262 0 1.699 0.505 3.123 2.554 3.123 1.433 0 1.993-0.625 2.094-1.359h-1.102c-0.046 0.303-0.239 0.927-1.075 0.927-1.259 0-1.461-1.515-1.461-2.462 0-1.029 0.11-3.059 1.884-3.059 0.799 0 1.359 0.321 1.598 0.496v-0.588z" fill="#7c7674"/>
   </g>
   <g transform="translate(303.95 787.16)">
    <path d="m1.479 2.738c0 1.203-0.083 2.784-1.479 2.784-1.424 0-1.534-1.544-1.534-2.784 0-1.139 0.138-2.738 1.534-2.738 1.424 0 1.479 1.562 1.479 2.738zm-1.479 3.215c1.911 0 2.49-1.24 2.49-3.215 0-1.948-0.579-3.17-2.49-3.17-1.939 0-2.545 1.204-2.545 3.17 0 1.975 0.551 3.215 2.545 3.215z" fill="#7c7674"/>
   </g>
   <g transform="translate(313.5 789.21)">
    <path d="m0 0c0-1.231-0.11-2.48-2.187-2.48-1.617 0-2.204 0.762-2.204 2.131v2.94c0 0.772-0.028 0.781-0.919 0.9v0.202l1.929 0.211v-3.794c0-1.047 0-2.159 1.314-2.159 1.406 0 1.406 1.02 1.406 1.948v3.904h0.661v-3.803z" fill="#7c7674"/>
   </g>
   <g transform="translate(317.48 790.12)">
    <path d="m0 0h0.524c0.597 0 1.433 0.165 1.433 1.194 0 0.993-0.57 1.268-1.341 1.268-0.616 0-0.616-0.165-0.616-0.827v-1.635zm-1.011 1.644c0 0.91-0.018 0.91-0.872 1.048v0.202h2.26c0.689 0 2.591 0 2.591-1.644 0-1.048-0.68-1.397-1.406-1.516l1.69-3.023h-1.056l-1.626 2.857h-0.57v-2.857h-1.011v4.933z" fill="#7c7674"/>
   </g>
   <g transform="translate(324.22 792.58)">
    <path d="m0 0h-0.634c-0.726 0-0.937-0.23-0.992-0.9h-0.257l0.036 1.332h4.704l0.037-1.36h-0.257c0 0.707-0.294 0.928-1.002 0.928h-0.625v-5.751h-1.01v5.751z" fill="#7c7674"/>
   </g>
   <g transform="translate(258.97 780.96)">
    <path d="m0 0c-0.248 0.12-0.928 0.414-1.645 0.414-0.486 0-0.882-0.285-0.882-0.892 0-1.414 2.986-1.286 2.986-3.252 0-1.314-1.038-1.81-2.306-1.81-0.707 0-1.415 0.193-1.607 0.239v0.744c0.284-0.165 1.019-0.551 1.754-0.551 0.579 0 1.149 0.239 1.149 1.075 0 1.488-2.986 1.35-2.986 3.289 0 1.01 0.772 1.589 2.067 1.589 0.634 0 1.231-0.119 1.47-0.165v-0.68z" fill="#7c7674"/>
   </g>
   <g transform="translate(266 775.76)">
    <path d="m0 0c-0.23-0.092-0.974-0.34-1.883-0.34-1.884 0-2.61 1.204-2.61 3.262 0 1.699 0.506 3.123 2.554 3.123 1.434 0 1.994-0.624 2.095-1.36h-1.102c-0.046 0.304-0.239 0.928-1.075 0.928-1.259 0-1.461-1.515-1.461-2.462 0-1.029 0.11-3.059 1.883-3.059 0.8 0 1.36 0.321 1.599 0.496v-0.588z" fill="#7c7674"/>
   </g>
   <g transform="translate(268.57 780.49)">
    <path d="m0 0c0 0.726-0.055 0.808-0.919 0.9v0.202l1.929 0.212v-2.848h2.5v2.747h1.01v-6.183h-1.01v3.004h-2.5v-3.004h-1.01v4.97z" fill="#7c7674"/>
   </g>
   <g transform="translate(280.47 777.9)">
    <path d="m0 0c0-1.231-0.11-2.481-2.187-2.481-1.616 0-2.205 0.763-2.205 2.132v2.94c0 0.772-0.027 0.781-0.918 0.9v0.202l1.929 0.212v-3.795c0-1.047 0-2.159 1.314-2.159 1.406 0 1.406 1.02 1.406 1.948v3.905h0.661v-3.804z" fill="#7c7674"/>
   </g>
   <g transform="translate(283.43 780.45)">
    <path d="m0 0c0 0.91-0.028 0.91-0.873 1.047v0.203h4.401l0.027-1.36h-0.257c0 0.735-0.386 0.928-0.992 0.928h-0.717c-0.459 0-0.579-0.037-0.579-0.478v-1.828h1.112c0.634 0 0.698 0.404 0.754 0.707h0.257v-1.929h-0.257c0 0.496-0.203 0.79-0.754 0.79h-1.112v-2.049c0-0.514 0.12-0.533 0.579-0.533h1.02c0.524 0 0.772 0.184 0.827 0.901h0.257l-0.027-1.332h-3.666v4.933z" fill="#7c7674"/>
   </g>
   <g transform="translate(289.82 780.49)">
    <path d="m0 0c0 0.772-0.027 0.781-0.919 0.9v0.202l1.929 0.212v-5.163c0-0.69 0-0.69 0.616-0.69h0.79c0.579 0 1.084 0.037 1.084 0.901h0.258l-0.028-1.332h-3.73v4.97z" fill="#7c7674"/>
   </g>
   <g transform="translate(296.16 780.49)">
    <path d="m0 0c0 0.772-0.027 0.781-0.919 0.9v0.202l1.93 0.212v-5.163c0-0.69 0-0.69 0.615-0.69h0.79c0.579 0 1.084 0.037 1.084 0.901h0.258l-0.028-1.332h-3.73v4.97z" fill="#7c7674"/>
   </g>
   <g transform="translate(302.45 780.45)">
    <path d="m0 0c0 0.91-0.027 0.91-0.873 1.047v0.203h4.401l0.027-1.36h-0.257c0 0.735-0.386 0.928-0.992 0.928h-0.717c-0.459 0-0.578-0.037-0.578-0.478v-1.828h1.111c0.634 0 0.698 0.404 0.754 0.707h0.257v-1.929h-0.257c0 0.496-0.203 0.79-0.754 0.79h-1.111v-2.049c0-0.514 0.119-0.533 0.578-0.533h1.02c0.524 0 0.772 0.184 0.827 0.901h0.257l-0.027-1.332h-3.666v4.933z" fill="#7c7674"/>
   </g>
   <g transform="translate(309.81 778.81)">
    <path d="m0 0h0.524c0.597 0 1.433 0.165 1.433 1.194 0 0.993-0.57 1.268-1.341 1.268-0.616 0-0.616-0.165-0.616-0.827v-1.635zm-1.011 1.644c0 0.91-0.018 0.91-0.873 1.048v0.202h2.261c0.689 0 2.59 0 2.59-1.644 0-1.048-0.679-1.397-1.405-1.516l1.69-3.023h-1.056l-1.626 2.857h-0.57v-2.857h-1.011v4.933z" fill="#7c7674"/>
   </g>
  </g>
 </g>
 <path fill="none" d="m196.89 57.671c0.44806 0 4.7441-0.44805 4.7441-0.44805l-0.31626-1.1333 1.7922 1.6604-1.7395 1.1597 0.34263-1.0806z"/>
</svg>
