<?xml version="1.0" encoding="UTF-8" standalone="no"?>
<svg
   xmlns:dc="http://purl.org/dc/elements/1.1/"
   xmlns:cc="http://creativecommons.org/ns#"
   xmlns:rdf="http://www.w3.org/1999/02/22-rdf-syntax-ns#"
   xmlns:svg="http://www.w3.org/2000/svg"
   xmlns="http://www.w3.org/2000/svg"
   xmlns:sodipodi="http://sodipodi.sourceforge.net/DTD/sodipodi-0.dtd"
   xmlns:inkscape="http://www.inkscape.org/namespaces/inkscape"
   id="Calque_1"
   data-name="Calque 1"
   viewBox="0 0 399.24 430.59"
   version="1.1"
   inkscape:version="0.91 r13725"
   sodipodi:docname="logo-mooc-factory.svg">
  <metadata
     id="metadata33">
    <rdf:RDF>
      <cc:Work
         rdf:about="">
        <dc:format>image/svg+xml</dc:format>
        <dc:type
           rdf:resource="http://purl.org/dc/dcmitype/StillImage" />
      </cc:Work>
    </rdf:RDF>
  </metadata>
  <sodipodi:namedview
     pagecolor="#ffffff"
     bordercolor="#666666"
     borderopacity="1"
     objecttolerance="10"
     gridtolerance="10"
     guidetolerance="10"
     inkscape:pageopacity="0"
     inkscape:pageshadow="2"
     inkscape:window-width="1855"
     inkscape:window-height="1056"
     id="namedview31"
     showgrid="false"
     showguides="true"
     inkscape:zoom="2.0599643"
     inkscape:cx="199.62"
     inkscape:cy="115.0754"
     inkscape:window-x="65"
     inkscape:window-y="24"
     inkscape:window-maximized="1"
     inkscape:current-layer="g4514" />
  <defs
     id="defs3">
    <style
       id="style5">.cls-1{fill:none;stroke:#73b6e0;stroke-miterlimit:10;stroke-width:0.25px;}.cls-2{font-size:206.13px;}.cls-2,.cls-4{fill:#25b6da;}.cls-2,.cls-4,.cls-5{font-family:Cyclone-Background, Cyclone;}.cls-3,.cls-5{fill:#405981;}.cls-3{letter-spacing:0em;}.cls-4{font-size:49.6px;}.cls-5{font-size:39.81px;}</style>
  </defs>
  <title
     id="title7">logo-mooc-factory</title>
  <g
     id="g4514">
    <g
       id="g4637"
       transform="translate(-1009.275,0.19842145)"
       style="stroke:#1fb4dc;stroke-opacity:1;stroke-width:0.5;stroke-miterlimit:4;stroke-dasharray:none">
      <path
         sodipodi:nodetypes="cccccccc"
         inkscape:connector-curvature="0"
         id="path4623"
         d="M 1046.129,103.60742 1173.2978,0.37154476 1408.0402,93.926524 1401.4643,341.90319 1163.8957,430.07005 1043.4418,319.35142 1010.0041,210.55926 Z"
         style="fill:none;fill-rule:evenodd;stroke:#1fb4dc;stroke-width:0.5;stroke-linecap:butt;stroke-linejoin:miter;stroke-miterlimit:4;stroke-dasharray:none;stroke-opacity:1" />
      <path
         sodipodi:nodetypes="ccccccscc"
         inkscape:connector-curvature="0"
         id="path4625"
         d="m 1010.0041,210.55926 c 0.6865,-3.43262 163.2937,-210.18771524 163.2937,-210.18771524 l 74.831,47.82494424 -201.9998,55.410931 -2.6872,215.744 199.1948,62.15216 c 0,0 169.5713,-290.742642 165.4521,-287.310026 -4.1191,3.432617 -130.0961,126.320296 -130.0961,126.320296 L 1173.2978,0.37154476"
         style="fill:none;fill-rule:evenodd;stroke:#1fb4dc;stroke-width:0.5;stroke-linecap:butt;stroke-linejoin:miter;stroke-miterlimit:4;stroke-dasharray:none;stroke-opacity:1" />
      <path
         sodipodi:nodetypes="ccccccccccccc"
         inkscape:connector-curvature="0"
         id="path4627"
         d="m 1046.129,103.60742 122.5348,109.18304 -158.6597,-2.2312 153.6823,219.34421 114.3062,-209.38962 -109.3288,-7.72339 73.9728,168.71312 158.8277,-39.60039 -42.8052,-124.4787 49.4296,-123.230936 -159.9599,-45.997065 -79.465,164.593971 -125.222,106.56096"
         style="fill:none;fill-rule:evenodd;stroke:#1fb4dc;stroke-width:0.5;stroke-linecap:butt;stroke-linejoin:miter;stroke-miterlimit:4;stroke-dasharray:none;stroke-opacity:1" />
      <path
         sodipodi:nodetypes="cccc"
         inkscape:connector-curvature="0"
         id="path4629"
         d="m 1248.1288,48.196489 c 2.0595,2.746093 110.5303,169.228001 110.5303,169.228001 l -116.0225,164.07909 -78.2636,48.39989"
         style="fill:none;fill-rule:evenodd;stroke:#1fb4dc;stroke-width:0.5;stroke-linecap:butt;stroke-linejoin:miter;stroke-miterlimit:4;stroke-dasharray:none;stroke-opacity:1" />
      <path
         inkscape:connector-curvature="0"
         id="path4633"
         d="m 1168.6638,212.79046 189.3087,4.9773"
         style="fill:none;fill-rule:evenodd;stroke:#1fb4dc;stroke-width:0.5;stroke-linecap:butt;stroke-linejoin:miter;stroke-miterlimit:4;stroke-dasharray:none;stroke-opacity:1"
         sodipodi:nodetypes="cc" />
      <path
         sodipodi:nodetypes="cc"
         inkscape:connector-curvature="0"
         id="path4635"
         d="m 1278.3358,220.51385 123.1285,121.38934"
         style="fill:none;fill-rule:evenodd;stroke:#1fb4dc;stroke-width:0.5;stroke-linecap:butt;stroke-linejoin:miter;stroke-miterlimit:4;stroke-dasharray:none;stroke-opacity:1" />
    </g>
    <g
       transform="matrix(0.79654512,0,0,0.79654512,-377.74102,43.375419)"
       id="g4457">
      <g
         id="g4459">
        <path
           style="fill:#1fb4dc;fill-opacity:1;fill-rule:evenodd;stroke:none;stroke-width:1px;stroke-linecap:butt;stroke-linejoin:miter;stroke-opacity:1"
           d="m 526.83911,297.0901 26.33589,0 0,-137.62625 c 3.80272,-4.97288 12.94544,-11.32586 14.32089,0 l 0,137.62625 25.11735,0 0,-137.62625 c 3.67498,-6.41664 15.25163,-10.61856 15.17535,0 l 0,137.62625 26.69997,0 0,-148.06351 c -4.16821,-34.60393 -36.99888,-23.0533 -44.30259,-12.03475 -13.59857,-17.34089 -31.30056,-10.30353 -37.01097,0 l 0,-8.23296 -26.33589,0 z"
           id="path4461"
           inkscape:connector-curvature="0"
           sodipodi:nodetypes="cccccccccccccccc" />
        <path
           style="fill:#1fb4dc;fill-opacity:1;fill-rule:evenodd;stroke:none;stroke-width:1px;stroke-linecap:butt;stroke-linejoin:miter;stroke-opacity:1"
           d="m 678.422,126.57031 c -29.00451,0 -32.28321,25.85352 -32.28321,25.85352 l 0,123.79101 c 0,0 5.51846,24.27344 32.28321,24.27344 26.76473,0 32.2832,-24.27344 32.2832,-24.27344 l 0,-123.79101 c 0,0 -3.27871,-25.85352 -32.2832,-25.85352 z m 0,25.84571 c 5.8112,0 6.46874,5.17968 6.46874,5.17968 l 0,112.1836 c 0,0 -1.1063,4.86328 -6.46874,4.86328 -5.36244,0 -6.4668,-4.86328 -6.4668,-4.86328 l 0,-112.1836 c 0,0 0.6556,-5.17968 6.4668,-5.17968 z"
           id="path4463"
           inkscape:connector-curvature="0" />
        <path
           inkscape:connector-curvature="0"
           id="path4465"
           d="m 754.63856,126.57031 c -29.00451,0 -32.28321,25.85352 -32.28321,25.85352 l 0,123.79101 c 0,0 5.51846,24.27344 32.28321,24.27344 26.76473,0 32.2832,-24.27344 32.2832,-24.27344 l 0,-123.79101 c 0,0 -3.27871,-25.85352 -32.2832,-25.85352 z m 0,25.84571 c 5.8112,0 6.46874,5.17968 6.46874,5.17968 l 0,112.1836 c 0,0 -1.1063,4.86328 -6.46874,4.86328 -5.36244,0 -6.4668,-4.86328 -6.4668,-4.86328 l 0,-112.1836 c 0,0 0.6556,-5.17968 6.4668,-5.17968 z"
           style="fill:#1fb4dc;fill-opacity:1;fill-rule:evenodd;stroke:none;stroke-width:1px;stroke-linecap:butt;stroke-linejoin:miter;stroke-opacity:1" />
        <path
           style="fill:#3e5981;fill-opacity:1;fill-rule:evenodd;stroke:none;stroke-width:1px;stroke-linecap:butt;stroke-linejoin:miter;stroke-opacity:1"
           d="m 830.8551,126.57031 c -29.00451,0 -32.2832,25.85352 -32.2832,25.85352 l 0,123.79101 c 0,0 5.51845,24.27344 32.2832,24.27344 26.76473,0 32.2832,-24.27344 32.2832,-24.27344 l 0,-38.59375 -25.81445,0 0,32.15821 c 0,0 -1.10631,4.86328 -6.46875,4.86328 -5.36244,0 -6.4668,-4.86328 -6.4668,-4.86328 l 0,-112.1836 c 0,0 0.6556,-5.17968 6.4668,-5.17968 5.8112,0 6.46875,5.17968 6.46875,5.17968 l 0,31.23828 25.81445,0 0,-36.41015 c 0,0 -3.27871,-25.85352 -32.2832,-25.85352 z"
           id="path4467"
           inkscape:connector-curvature="0" />
      </g>
      <g
         id="g4469">
        <path
           style="opacity:1;fill:#1fb4dc;fill-opacity:1;fill-rule:evenodd;stroke:none;stroke-width:1px;stroke-linecap:butt;stroke-linejoin:miter;stroke-opacity:1"
           d="m 914.74324,192.85938 c -6.96291,0 -7.75,6.0948 -7.75,6.0948 l 0,29.18289 c 0,0 1.32477,5.72231 7.75,5.72231 6.42522,0 7.75,-5.72231 7.75,-5.72231 l 0,-29.18289 c 0,0 -0.78709,-6.0948 -7.75,-6.0948 z m 0,6.09296 c 1.39506,0 1.5529,1.22107 1.5529,1.22107 l 0,26.44653 c 0,0 -0.26557,1.14648 -1.5529,1.14648 -1.28732,0 -1.55244,-1.14648 -1.55244,-1.14648 l 0,-26.44653 c 0,0 0.15739,-1.22107 1.55244,-1.22107 z"
           id="path4471"
           inkscape:connector-curvature="0" />
        <path
           inkscape:connector-curvature="0"
           id="path4473"
           d="m 881.09284,192.85938 c -6.96293,0 -7.75001,6.0948 -7.75001,6.0948 l 0,29.18289 c 0,0 1.32477,5.72231 7.75001,5.72231 6.42524,0 7.74999,-5.72231 7.74999,-5.72231 l 0,-9.0982 -6.19709,0 0,7.58107 c 0,0 -0.26558,1.14648 -1.5529,1.14648 -1.28734,0 -1.55245,-1.14648 -1.55245,-1.14648 l 0,-26.44653 c 0,0 0.15738,-1.22107 1.55245,-1.22107 1.39505,0 1.5529,1.22107 1.5529,1.22107 l 0,7.36422 6.19709,0 0,-8.58345 c 0,0 -0.78709,-6.0948 -7.74999,-6.0948 z"
           style="opacity:1;fill:#1fb4dc;fill-opacity:1;fill-rule:evenodd;stroke:none;stroke-width:1px;stroke-linecap:butt;stroke-linejoin:miter;stroke-opacity:1"
           sodipodi:nodetypes="sccsccccsccsccccs" />
        <path
           style="opacity:1;fill:#1fb4dc;fill-opacity:1;fill-rule:evenodd;stroke:none;stroke-width:1px;stroke-linecap:butt;stroke-linejoin:miter;stroke-opacity:1"
           d="m 840.56386,193.10342 0,40.75596 6.34524,0 0.24405,-17.57142 4.6369,0 0,-6.5893 -4.6369,0 0,-10.7381 6.10118,0 0,-6.10118 z"
           id="path4475"
           inkscape:connector-curvature="0"
           sodipodi:nodetypes="ccccccccccc" />
        <path
           style="opacity:1;fill:#1fb4dc;fill-opacity:1;fill-rule:evenodd;stroke:none;stroke-width:1px;stroke-linecap:butt;stroke-linejoin:miter;stroke-opacity:1"
           d="m 862.84776,192.85938 c -7.09334,0 -7.51826,7.02503 -7.51826,7.02503 l 0,6.71354 5.45696,0 0,-6.29838 c 0,0 0.11152,-1.47616 1.904,-1.47616 1.79248,0 1.904,1.47616 1.904,1.47616 l 0,7.8595 c -3.60806,1.50148 -6.42957,3.77506 -8.56943,8.11893 -1.73157,4.81175 -1.05711,10.91341 -0.01,13.74635 1.73645,4.69661 8.52628,5.05905 9.65964,1.19938 l 0,2.07269 4.78876,0 0,-33.41201 c 0,0 -0.52264,-7.02503 -7.61598,-7.02503 z m 1.77865,32.66251 c 0,2.15615 -1.50036,2.95167 -3.04669,2.1549 -1.25268,-0.64547 -1.28495,-7.81288 -0.13099,-9.38593 1.09265,-1.6807 2.21218,-3.20148 3.17768,-3.20148 z"
           id="path4477"
           inkscape:connector-curvature="0"
           sodipodi:nodetypes="ccccczcccsccccscssccs" />
        <path
           style="opacity:1;fill:#1fb4dc;fill-opacity:1;fill-rule:evenodd;stroke:none;stroke-width:1px;stroke-linecap:butt;stroke-linejoin:miter;stroke-opacity:1"
           d="m 889.7274,192.85938 0,6.43137 4.84376,0 0,34.56863 5.81248,0 0,-34.56863 4.84376,0 0,-6.43137 z"
           id="path4479"
           inkscape:connector-curvature="0"
           sodipodi:nodetypes="ccccccccc" />
        <path
           style="opacity:1;fill:#1fb4dc;fill-opacity:1;fill-rule:evenodd;stroke:none;stroke-width:1px;stroke-linecap:butt;stroke-linejoin:miter;stroke-opacity:1"
           d="m 934.21351,216.73197 c 0.69315,1.8587 -0.11455,17.12741 1.43837,17.12741 l 4.83055,0 c 0,0 -0.53672,-4.05325 -0.53672,-12.21887 0,-8.16562 -2.18681,-8.38169 -2.18681,-8.38169 0,0 2.32098,-0.0171 2.32098,-10.00492 0,-9.98777 -4.73626,-10.32212 -4.73626,-10.32212 0,0 -4.37152,-0.1629 -9.93733,0 l 0,40.9276 5.78038,0 0.10993,-16.99215 z m -2.91691,-17.40324 0,12.0601 3.05109,-0.13527 0,-12.06009 c -1.28981,-1.10882 -2.11906,-0.91996 -3.05109,0.13526 z"
           id="path4481"
           inkscape:connector-curvature="0"
           sodipodi:nodetypes="ccczczccccccccccc" />
        <path
           style="opacity:1;fill:#1fb4dc;fill-opacity:1;fill-rule:evenodd;stroke:none;stroke-width:1px;stroke-linecap:butt;stroke-linejoin:miter;stroke-opacity:1"
           d="m 943.11719,192.85938 0,18.80761 c 0,0 1.32477,5.81895 7.75,5.81894 0.55924,0 1.06788,-0.0571 1.55233,-0.13757 l 0,9.14965 c 0,0 -0.26499,1.16457 -1.55233,1.16457 -1.28732,0 -1.55233,-1.16457 -1.55233,-1.16457 l 0,-5.44704 -6.19767,0 0,6.98946 c 0,0 1.32477,5.81895 7.75,5.81895 6.42523,0 7.75,-5.81895 7.75,-5.81895 l 0,-35.04734 -6.19767,0 0,17.12955 c 0,0 -0.26501,1.1665 -1.55233,1.1665 -1.28734,0 -1.55233,-1.1665 -1.55233,-1.1665 l 0,-17.26326 z"
           id="path4483"
           inkscape:connector-curvature="0"
           sodipodi:nodetypes="ccsccsccccsccccsccc" />
      </g>
      <g
         id="g4485">
        <g
           id="g4487"
           transform="matrix(0.99998914,0,0,0.99998914,0.578691,0.00292111)"
           style="fill:#3e5981;fill-opacity:1">
          <path
             style="fill:#3e5981;fill-opacity:1;fill-rule:evenodd;stroke:none;stroke-width:1px;stroke-linecap:butt;stroke-linejoin:miter;stroke-opacity:1"
             d="m 938.79935,236.97876 0,32 5.42394,0 0,-32 z"
             id="path4489"
             inkscape:connector-curvature="0"
             sodipodi:nodetypes="ccccc" />
          <path
             sodipodi:nodetypes="ccccc"
             inkscape:connector-curvature="0"
             id="path4491"
             d="m 880.03176,236.97876 0,32 5.42394,0 0,-32 z"
             style="fill:#3e5981;fill-opacity:1;fill-rule:evenodd;stroke:none;stroke-width:1px;stroke-linecap:butt;stroke-linejoin:miter;stroke-opacity:1" />
          <path
             style="opacity:1;fill:#3e5981;fill-opacity:1;fill-rule:evenodd;stroke:none;stroke-width:1px;stroke-linecap:butt;stroke-linejoin:miter;stroke-opacity:1"
             d="m 905.3151,255.68971 c 0,0 2.88775,0.0689 2.88775,-9.28788 0,-9.3568 -3.33406,-9.28788 -3.33406,-9.28788 0,0 -3.77445,-0.12715 -8.1185,0 l 0,31.94349 4.51152,0 0.0858,-13.26217 z m -3.96749,-13.58303 0,9.41277 2.38134,-0.10558 0,-9.41276 c -1.00669,-0.86541 -1.65391,-0.71801 -2.38134,0.10557 z"
             id="path4493"
             inkscape:connector-curvature="0"
             sodipodi:nodetypes="czccccccccccc" />
          <path
             style="opacity:1;fill:#3e5981;fill-opacity:1;fill-rule:evenodd;stroke:none;stroke-width:1px;stroke-linecap:butt;stroke-linejoin:miter;stroke-opacity:1"
             d="m 916.62034,236.97877 c -5.53626,0 -5.86791,5.48294 -5.86791,5.48294 l 0,5.23985 4.25909,0 0,-4.91581 c 0,0 0.087,-1.15213 1.48605,-1.15213 1.39901,0 1.48605,1.15213 1.48605,1.15213 l 0,6.13424 c -2.81605,1.17189 -5.0182,2.94639 -6.68834,6.33672 -1.35147,3.75552 -0.82505,8.51779 -0.008,10.72886 1.35528,3.66565 6.65466,3.94853 7.53923,0.9361 l 0,1.61772 3.73758,0 0,-26.07768 c 0,0 -0.40792,-5.48294 -5.94419,-5.48294 z m 1.38821,25.49268 c 0,1.68286 -1.17101,2.30375 -2.3779,1.68188 -0.9777,-0.50378 -1.00289,-6.09786 -0.10224,-7.3256 0.8528,-1.31177 1.72658,-2.49872 2.48014,-2.49872 z"
             id="path4495"
             inkscape:connector-curvature="0"
             sodipodi:nodetypes="ccccczcccsccccscssccs" />
          <path
             sodipodi:nodetypes="ccczczccccccccccc"
             inkscape:connector-curvature="0"
             id="path4497"
             d="m 931.93421,255.61104 c 0.54099,1.45069 -0.0894,13.36773 1.12263,13.36773 l 3.77019,0 c 0,0 -0.41891,-3.16351 -0.41891,-9.53667 0,-6.37317 -1.70678,-6.54182 -1.70678,-6.54182 0,0 1.8115,-0.0133 1.8115,-7.80871 0,-7.79534 -3.6966,-8.05629 -3.6966,-8.05629 0,0 -3.41191,-0.12715 -7.75596,0 l 0,31.94349 4.51152,0 0.0858,-13.26217 z m -2.27661,-13.58303 0,9.41277 2.38134,-0.10558 0,-9.41276 c -1.00669,-0.86541 -1.6539,-0.71801 -2.38134,0.10557 z"
             style="opacity:1;fill:#3e5981;fill-opacity:1;fill-rule:evenodd;stroke:none;stroke-width:1px;stroke-linecap:butt;stroke-linejoin:miter;stroke-opacity:1" />
          <path
             style="opacity:1;fill:#3e5981;fill-opacity:1;fill-rule:evenodd;stroke:none;stroke-width:1px;stroke-linecap:butt;stroke-linejoin:miter;stroke-opacity:1"
             d="m 873.1059,255.61104 c 0.54099,1.45069 -0.0894,13.36773 1.12263,13.36773 l 3.77019,0 c 0,0 -0.41891,-3.16351 -0.41891,-9.53668 0,-6.37316 -1.70678,-6.54181 -1.70678,-6.54181 0,0 1.8115,-0.0133 1.8115,-7.80871 0,-7.79534 -3.6966,-8.05629 -3.6966,-8.05629 0,0 -3.41191,-0.12715 -7.75596,0 l 0,31.94349 4.51152,0 0.0858,-13.26217 z m -2.27661,-13.58303 0,9.41277 2.38134,-0.10558 0,-9.41276 c -1.00669,-0.86541 -1.65391,-0.71801 -2.38134,0.10557 z"
             id="path4499"
             inkscape:connector-curvature="0"
             sodipodi:nodetypes="ccczczccccccccccc" />
          <path
             sodipodi:nodetypes="ccsccccscczccsccccscczc"
             style="opacity:1;fill:#3e5981;fill-opacity:1;fill-rule:evenodd;stroke:none;stroke-width:1px;stroke-linecap:butt;stroke-linejoin:miter;stroke-opacity:1"
             d="m 959.62938,260.78954 0,3.72303 c 0,0 -1.03397,4.46619 -6.0488,4.46619 -5.01482,0 -6.04876,-4.46619 -6.04876,-4.46619 l 0,-7.10104 4.83675,0 0,5.91694 c 0,0 0.20728,0.89482 1.21201,0.89482 1.00476,0 1.21167,-0.89482 1.21167,-0.89482 l 0,-1.58734 c 0,0 -2.42014,-5.20384 -3.63021,-7.80576 -1.21007,-2.60192 -3.63022,-7.80574 -3.63022,-7.80574 l 0,-4.39394 c 0,0 0.61431,-4.75692 6.0488,-4.75692 5.43445,0 6.04876,4.75692 6.04876,4.75692 l 0,6.69928 -4.83675,0 0,-5.74769 c 0,0 -0.12319,-0.95304 -1.21201,-0.95304 -1.08884,0 -1.21167,0.95304 -1.21167,0.95304 l 0,2.25825 c 0,0 2.42014,5.28134 3.63021,7.92201 1.21007,2.64067 3.63022,7.922 3.63022,7.922 z"
             id="path4501"
             inkscape:connector-curvature="0" />
          <path
             style="fill:#3e5981;fill-opacity:1;fill-rule:evenodd;stroke:none;stroke-width:1px;stroke-linecap:butt;stroke-linejoin:miter;stroke-opacity:1"
             d="m 887.71713,250.5942 0,4.76913 6.75227,0 0,-4.76913 z"
             id="path4503"
             inkscape:connector-curvature="0"
             sodipodi:nodetypes="ccccc" />
        </g>
      </g>
    </g>
  </g>
</svg>
